<svg width="46" height="46" viewBox="0 0 46 46" fill="none" xmlns="http://www.w3.org/2000/svg">
<circle cx="23" cy="23" r="23" fill="white" fill-opacity="0.24"/>
<path d="M28.6026 19.2652C28.6026 17.7793 28.0123 16.3542 26.9616 15.3036C25.911 14.2529 24.4859 13.6626 23 13.6626C21.5141 13.6626 20.0891 14.2529 19.0384 15.3036C17.9877 16.3542 17.3975 17.7793 17.3975 19.2652C17.3975 25.8015 14.5962 27.669 14.5962 27.669H31.4039C31.4039 27.669 28.6026 25.8015 28.6026 19.2652Z" stroke="white" stroke-width="1.64132" stroke-linecap="round" stroke-linejoin="round"/>
<path d="M24.6153 31.4038C24.4512 31.6868 24.2155 31.9217 23.932 32.085C23.6485 32.2483 23.3271 32.3343 22.9999 32.3343C22.6728 32.3343 22.3513 32.2483 22.0678 32.085C21.7843 31.9217 21.5487 31.6868 21.3845 31.4038" stroke="white" stroke-width="1.64132" stroke-linecap="round" stroke-linejoin="round"/>
</svg>
