<svg width="46" height="46" viewBox="0 0 46 46" fill="none" xmlns="http://www.w3.org/2000/svg">
<circle cx="23" cy="23" r="23" fill="white" fill-opacity="0.24"/>
<path d="M23.0018 24.8332C24.0143 24.8332 24.8351 24.0124 24.8351 22.9998C24.8351 21.9873 24.0143 21.1665 23.0018 21.1665C21.9893 21.1665 21.1685 21.9873 21.1685 22.9998C21.1685 24.0124 21.9893 24.8332 23.0018 24.8332Z" stroke="white" stroke-width="1.55814" stroke-linecap="round" stroke-linejoin="round"/>
<path d="M26.8883 19.1132C27.3997 19.624 27.8053 20.2306 28.0821 20.8983C28.3589 21.566 28.5014 22.2817 28.5014 23.0045C28.5014 23.7272 28.3589 24.4429 28.0821 25.1106C27.8053 25.7783 27.3997 26.3849 26.8883 26.8957M19.115 26.8865C18.6036 26.3757 18.1979 25.7692 17.9211 25.1015C17.6443 24.4338 17.5019 23.7181 17.5019 22.9953C17.5019 22.2725 17.6443 21.5568 17.9211 20.8891C18.1979 20.2214 18.6036 19.6148 19.115 19.104M29.4825 16.519C31.2009 18.238 32.1663 20.5692 32.1663 22.9999C32.1663 25.4305 31.2009 27.7617 29.4825 29.4807M16.5208 29.4807C14.8023 27.7617 13.8369 25.4305 13.8369 22.9999C13.8369 20.5692 14.8023 18.238 16.5208 16.519" stroke="white" stroke-width="1.55814" stroke-linecap="round" stroke-linejoin="round"/>
</svg>
