<svg width="21" height="14" viewBox="0 0 21 14" fill="none" xmlns="http://www.w3.org/2000/svg">
<path d="M5.35352 2.85427L5.34525 2.83807L5.33111 2.82662C5.24893 2.76008 5.14416 2.72714 5.03835 2.73417C4.93273 2.74119 4.8335 2.78754 4.76113 2.86423C4.761 2.86438 4.76086 2.86452 4.76073 2.86466L1.05918 6.69671H1.05385L1.02856 6.7231C0.955355 6.79948 0.914326 6.90066 0.914326 7.00613C0.914326 7.11159 0.955353 7.21278 1.02856 7.28916L1.02878 7.28938L4.72557 11.1182L4.72548 11.1183L4.72889 11.1215C4.78931 11.1776 4.85869 11.2236 4.93422 11.2575L4.94505 11.2624L4.95681 11.2641C5.06045 11.2795 5.16639 11.2583 5.25588 11.2042C5.34539 11.1501 5.41282 11.0664 5.44571 10.9676L5.44578 10.9676L5.4467 10.9644C5.82196 9.67186 6.01812 8.33566 6.02989 6.99179L6.02989 6.99116C6.03168 5.64617 5.83696 4.30788 5.45165 3.01703L5.44942 3.00955L5.44587 3.00259C5.42777 2.96711 5.40953 2.94105 5.39424 2.91919L5.39358 2.91825C5.37822 2.8963 5.36594 2.8786 5.35352 2.85427ZM5.22232 7.00059L5.22231 7.0007C5.21746 8.03432 5.08908 9.06367 4.83992 10.0677L1.9244 7.00112L4.8412 3.93557C5.10038 4.93707 5.22849 5.96701 5.22232 7.00059ZM19.2459 3.33909L16.7757 5.90369C16.3332 5.22865 15.8352 4.59008 15.2866 3.99435C14.2511 2.85339 12.9995 1.83781 11.6182 1.32812C10.9397 1.02056 10.1953 0.879208 9.44884 0.916183C8.70135 0.95321 7.97419 1.16796 7.33014 1.542L7.32998 1.54209C7.00258 1.73315 6.69467 1.95465 6.41053 2.20354C6.348 2.25222 6.30273 2.31951 6.28179 2.39575C6.26098 2.47149 6.26537 2.55173 6.2942 2.62473C7.13827 5.48163 7.13789 8.51456 6.29305 11.3713L6.29304 11.3713L6.2926 11.3729C6.27273 11.4451 6.27271 11.5213 6.29257 11.5936C6.31242 11.6658 6.35137 11.7314 6.40527 11.7838L6.40577 11.7843C6.66488 12.0322 6.95584 12.2459 7.27126 12.4201C8.7228 13.2985 10.2062 13.2348 11.6177 12.6641C12.9618 12.1225 14.2543 11.103 15.2861 9.97075C15.8409 9.38978 16.3396 8.75982 16.776 8.08893L19.1996 10.6127L19.1995 10.6129L19.2035 10.6165C19.2532 10.6621 19.3127 10.6958 19.3775 10.7152C19.4423 10.7345 19.5107 10.7391 19.5775 10.7285L19.5776 10.729L19.5866 10.7266C19.69 10.6985 19.7791 10.6328 19.8354 10.5423C19.8919 10.4517 19.9111 10.3433 19.8891 10.239L19.8891 10.239L19.8886 10.2369L19.1238 7.02155L19.9372 3.71565L19.9395 3.70631L19.9397 3.6967C19.9419 3.57227 19.9039 3.45051 19.8314 3.3488L19.8263 3.3416L19.8198 3.3356C19.7424 3.26408 19.6404 3.22449 19.5346 3.22449C19.4289 3.22449 19.3268 3.26408 19.2494 3.3356L19.2493 3.3355L19.2459 3.33909ZM14.6985 9.4371L14.6759 9.46167V9.46847C13.6866 10.5131 12.4954 11.4719 11.3081 11.9368C10.1122 12.405 8.86927 12.4613 7.68728 11.7373L7.6873 11.7373L7.685 11.736C7.49174 11.6257 7.30772 11.5006 7.13466 11.3619C7.92058 8.51396 7.92049 5.51243 7.13441 2.66448C7.32651 2.50532 7.52112 2.36955 7.7189 2.23177C8.90148 1.56786 10.1443 1.59318 11.3368 2.0596C12.6145 2.63726 13.7508 3.47664 14.6691 4.52104L14.669 4.52108L14.6713 4.52345C15.3193 5.20605 15.8844 5.95998 16.3551 6.77011L16.3548 6.77027L16.359 6.7762C16.4208 6.86459 16.5152 6.9253 16.6216 6.94591C16.7219 6.96535 16.8258 6.94781 16.9137 6.89683C16.9396 6.89074 16.9636 6.87799 16.9833 6.85951L16.9247 6.79705L16.9833 6.8595C17.0007 6.84321 17.0139 6.82314 17.0219 6.80096L18.7885 4.99878L18.3188 6.92042L18.3163 6.93045V6.94077V7.08909V7.09895L18.3185 7.10855L18.7609 9.00488L17.0072 7.18127C16.9355 7.10318 16.8359 7.05584 16.7297 7.04879C16.6231 7.04171 16.5176 7.0757 16.4358 7.14399L16.4356 7.14378L16.4308 7.14857C16.429 7.1503 16.4271 7.15216 16.425 7.15413C16.4123 7.16654 16.395 7.1833 16.3814 7.20029C16.3696 7.21509 16.3538 7.23804 16.3469 7.26771C15.8666 8.03883 15.3147 8.76503 14.6985 9.4371Z" fill="#087E8B" stroke="#087E8B" stroke-width="0.171348"/>
</svg>
