<svg width="24" height="11" viewBox="0 0 24 11" fill="none" xmlns="http://www.w3.org/2000/svg">
<path d="M12.8114 5.01815L19.812 5.01815M22.1627 8.18408L19.3934 6.48398M22.7166 6.01296L20.5913 4.75455M19.3934 3.84681L22.0339 1.94588M9.16626 7.10647C9.08898 5.92171 9.18557 4.48265 9.86181 3.40496M2.13344 10.5L12.7213 6.48391C12.7213 6.48391 14.9496 5.91496 15.497 5.91496C15.6709 5.91496 15.7997 5.92838 15.8835 5.93505L15.8513 5.93505L16.6434 5.93505L21.4736 8.94043C21.4736 8.94043 23 7.87617 23 5.23225C23 2.58832 21.4478 1.28312 21.4478 1.28312C21.4478 1.28312 17.7382 4.04748 17.017 4.04748C16.2956 4.04748 15.3618 3.8534 15.3618 3.8534L15.3425 3.8534C15.3425 3.8534 12.8565 3.40496 12.702 3.34467L2.13344 0.499999C2.13344 0.499999 1 3.1104 1 5.49996C1 7.88952 2.13344 10.5 2.13344 10.5ZM3.5 8C3.5 8 1.5 4 3.62762 2.68206L3.5 8ZM5.13461 7.35424C4 6 4.5 3.5 5.71426 2.58187L5.13461 7.35424ZM7.25349 7.6419C6.5 6.5 6.5 4.04748 7.83308 2.86953L7.54328 5.25572L7.25349 7.6419Z" stroke="#087E8B" stroke-width="0.675" stroke-miterlimit="10"/>
</svg>
