<svg xmlns="http://www.w3.org/2000/svg" viewBox="0 0 374.71 374.81"><defs><style>.cls-1{fill:#fff;}</style></defs><title>Asset 1</title><g id="Layer_2" data-name="Layer 2"><g id="Layer_1-2" data-name="Layer 1"><path class="cls-1" d="M180.8,0H194c6.1,1.05,12.3,1.72,18.28,3.22a100.32,100.32,0,0,1,50.61,30.45,4.81,4.81,0,0,0,5.07,1.68,83,83,0,0,1,32.33.74c38.33,8.18,66.82,38.34,73.25,77.3C379.78,151.31,361,190.3,327.41,209c-2.76,1.53-3.89,3.1-3.88,6.42q.21,61.47.07,123c0,21.19-14.7,36.35-35.6,36.38q-100.62.18-201.25-.1a38,38,0,0,1-15.5-3.43c-13.73-6.41-20-17.88-20-32.89q0-61.49.15-122.95c0-3.11-1-4.65-3.64-6.18C26.8,197.3,12.36,179.91,4.88,157.06c-2.29-7-3.29-14.42-4.88-21.64V120.78c.59-3.71,1.05-7.45,1.79-11.13,9.83-48.8,55.94-81.38,103.64-74.42,3.5.51,5.52-.46,7.79-2.89A97.61,97.61,0,0,1,160.78,3.75C167.33,2.05,174.12,1.22,180.8,0ZM98.62,51.47A70.82,70.82,0,0,0,70.8,54.66,76.49,76.49,0,0,0,61,196.88c5.4,2.51,7.47,6.09,7.41,12-.25,25.37-.16,50.74-.2,76.12v4.43H306.66v-4.53q0-38.79,0-77.58c0-3.37.67-6.37,3.55-8.35a46.06,46.06,0,0,1,5.48-2.89c30.57-15.24,48-50.48,40.42-83.6C348.85,80.81,328.88,61,297.4,52.93a55.52,55.52,0,0,0-21.11-1.37c.5,1.15.87,1.9,1.16,2.67,3.29,8.88,7.34,17.57,9.59,26.7,1.84,7.44,1.9,15.41,2,23.15.05,3.91-4,6.53-8,6.51a8,8,0,0,1-8-6.25,45.22,45.22,0,0,1-.73-6.89,83.38,83.38,0,0,0-10.9-37.16c-17-29.95-51.43-48.22-87.6-42-31.28,5.41-53,23.32-65.46,52.36-4.13,9.61-5.78,19.81-6.11,30.28-.2,6.32-3.93,9.91-9.11,9.6s-8.1-4.4-7.91-10.7a101.94,101.94,0,0,1,10-41.62C96.27,56.1,97.37,54,98.62,51.47ZM306.41,306.93H68.26c0,11.7-.2,23.15.09,34.58a14.58,14.58,0,0,0,7.71,13,27.36,27.36,0,0,0,12.1,3.18q99.33.29,198.65.12a31.88,31.88,0,0,0,4.37-.31c8.14-1.17,14.62-6.88,15.07-15.05C306.89,330.67,306.41,318.85,306.41,306.93Z"/><path class="cls-1" d="M85.15,180.93c-.23-5.6,2.5-9.6,7.21-10.33,4.92-.76,9,2.27,9.72,8,1.75,14.51,9.9,26,17.56,37.64,2.06,3.15,4.6,6,6.59,9.19a8.29,8.29,0,0,1-2.07,11.38,8.1,8.1,0,0,1-11.46-1.52c-11.22-14.06-21.08-28.93-26.07-46.48C85.9,186.25,85.63,183.56,85.15,180.93Z"/><path class="cls-1" d="M289.59,179.08a61.34,61.34,0,0,1-8.74,27.77c-5.43,9.34-11.61,18.26-17.76,27.16-3.47,5-8.47,5.82-12.62,2.7-4-3-4.31-8.1-.88-13s7-9.68,10.23-14.66c6.39-9.72,11.84-19.84,13.14-31.71.43-3.84,3.06-6,6.74-6.7a7.84,7.84,0,0,1,8.61,4.11A19.85,19.85,0,0,1,289.59,179.08Z"/><path class="cls-1" d="M178.82,204.23c0-7.68-.14-15.37.09-23a16.21,16.21,0,0,1,1.88-7.22c1.7-3.05,4.87-4,8.25-3.28a7.68,7.68,0,0,1,6.41,6.21,20.47,20.47,0,0,1,.48,4.34q.06,23.22,0,46.45c0,5.87-2.05,9.14-6.26,10.29-4.89,1.35-9.78-1.33-10.32-6.37-.62-5.79-.42-11.67-.53-17.51C178.77,210.81,178.82,207.52,178.82,204.23Z"/></g></g></svg>