<svg width="21" height="23" viewBox="0 0 21 23" fill="none" xmlns="http://www.w3.org/2000/svg">
<path d="M14.9111 0H5.67335C4.32381 0 3.22542 1.09915 3.22542 2.44793V11.5H2.98633C3 11.5 3.00009 11.9726 3.00009 12.5177V18.5C3.00009 19.0451 2.99972 19.4551 2.98633 19.4551H3.22542V20.552C3.22542 21.9023 4.32381 23 5.67335 23H18.2778C19.6265 23 20.725 21.9022 20.725 20.552V5.7936L14.9111 0ZM18.2778 21.5008H5.67335C5.1508 21.5008 4.72528 21.0753 4.72528 20.552V19.4551H4.47525C5.02003 19.4551 5.46172 19.0138 5.46172 18.4687V12.4864C5.46172 11.9413 5.02003 11.5 4.47525 11.5H4.72528V2.44793C4.72528 1.92614 5.15085 1.50062 5.67335 1.50062L14.3502 1.49156V4.69884C14.3502 5.63565 15.1103 6.39648 16.0479 6.39648L19.1897 6.38747L19.2251 20.552C19.2251 21.0753 18.8003 21.5008 18.2778 21.5008Z" fill="#C2C2C2"/>
<circle r="4.5" transform="matrix(-1 0 0 1 4.5 15.5)" fill="#C2C2C2"/>
<path d="M6 14L3 17" stroke="white" stroke-width="0.597209" stroke-linecap="round" stroke-linejoin="round"/>
<path d="M3 14L6 17" stroke="white" stroke-width="0.597209" stroke-linecap="round" stroke-linejoin="round"/>
</svg>
