<svg width="37" height="37" viewBox="0 0 37 37" fill="none" xmlns="http://www.w3.org/2000/svg">
<circle cx="18.5" cy="18.5" r="18" stroke="#DDDDDD"/>
<g clip-path="url(#clip0)">
<path d="M25.9853 15.41C25.9502 14.613 25.8213 14.0651 25.6367 13.5903C25.4462 13.0863 25.1532 12.6351 24.7693 12.26C24.3942 11.8791 23.94 11.5831 23.4418 11.3956C22.9643 11.211 22.4192 11.0821 21.6222 11.0469C20.8193 11.0088 20.5643 11 18.5278 11C16.4913 11 16.2364 11.0088 15.4364 11.044C14.6394 11.0791 14.0915 11.2081 13.6168 11.3926C13.1127 11.5831 12.6615 11.8761 12.2864 12.26C11.9054 12.6351 11.6096 13.0893 11.422 13.5874C11.2373 14.0651 11.1084 14.6101 11.0733 15.4071C11.0352 16.21 11.0264 16.4649 11.0264 18.5015C11.0264 20.538 11.0352 20.7929 11.0703 21.5929C11.1055 22.3899 11.2345 22.9378 11.4191 23.4126C11.6096 23.9166 11.9054 24.3678 12.2864 24.7429C12.6615 25.1239 13.1157 25.4199 13.6138 25.6073C14.0915 25.792 14.6364 25.9209 15.4335 25.956C16.2334 25.9913 16.4884 26 18.525 26C20.5615 26 20.8164 25.9913 21.6164 25.956C22.4134 25.9209 22.9613 25.792 23.436 25.6073C24.4441 25.2176 25.2411 24.4206 25.6308 23.4126C25.8153 22.935 25.9443 22.3899 25.9795 21.5929C26.0146 20.7929 26.0234 20.538 26.0234 18.5015C26.0234 16.4649 26.0205 16.21 25.9853 15.41ZM24.6345 21.5343C24.6023 22.2669 24.4792 22.6624 24.3767 22.9262C24.1246 23.5796 23.606 24.0983 22.9525 24.3503C22.6888 24.4529 22.2903 24.5759 21.5606 24.6081C20.7695 24.6433 20.5322 24.652 18.5308 24.652C16.5294 24.652 16.2892 24.6433 15.5008 24.6081C14.7683 24.5759 14.3727 24.4529 14.109 24.3503C13.7838 24.2301 13.4878 24.0397 13.2475 23.7906C12.9985 23.5474 12.808 23.2543 12.6878 22.9291C12.5852 22.6654 12.4622 22.2669 12.43 21.5373C12.3948 20.7461 12.3861 20.5087 12.3861 18.5073C12.3861 16.5059 12.3948 16.2657 12.43 15.4775C12.4622 14.7449 12.5852 14.3493 12.6878 14.0856C12.808 13.7603 12.9985 13.4644 13.2505 13.224C13.4936 12.9749 13.7866 12.7845 14.1119 12.6644C14.3757 12.5619 14.7742 12.4388 15.5038 12.4065C16.295 12.3714 16.5324 12.3626 18.5337 12.3626C20.538 12.3626 20.7753 12.3714 21.5636 12.4065C22.2962 12.4388 22.6918 12.5619 22.9555 12.6644C23.2807 12.7845 23.5767 12.9749 23.8169 13.224C24.066 13.4673 24.2565 13.7603 24.3767 14.0856C24.4792 14.3493 24.6023 14.7478 24.6345 15.4775C24.6697 16.2686 24.6785 16.5059 24.6785 18.5073C24.6785 20.5087 24.6697 20.7431 24.6345 21.5343Z" fill="white"/>
<path d="M18.5279 14.6484C16.4006 14.6484 14.6746 16.3743 14.6746 18.5017C14.6746 20.6291 16.4006 22.355 18.5279 22.355C20.6553 22.355 22.3811 20.6291 22.3811 18.5017C22.3811 16.3743 20.6553 14.6484 18.5279 14.6484ZM18.5279 21.0013C17.1478 21.0013 16.0283 19.8819 16.0283 18.5017C16.0283 17.1215 17.1478 16.0022 18.5279 16.0022C19.908 16.0022 21.0274 17.1215 21.0274 18.5017C21.0274 19.8819 19.908 21.0013 18.5279 21.0013Z" fill="white"/>
<path d="M23.4332 14.4962C23.4332 14.993 23.0304 15.3958 22.5335 15.3958C22.0367 15.3958 21.6339 14.993 21.6339 14.4962C21.6339 13.9994 22.0367 13.5967 22.5335 13.5967C23.0304 13.5967 23.4332 13.9994 23.4332 14.4962Z" fill="white"/>
</g>
<defs>
<clipPath id="clip0">
<rect width="15" height="15" fill="white" transform="translate(11 11)"/>
</clipPath>
</defs>
</svg>
