<svg width="425" height="107" viewBox="0 0 425 107" fill="none" xmlns="http://www.w3.org/2000/svg">
<path d="M13.3985 90.4669C13.1563 90.4669 12.9337 90.5567 12.7305 90.7364C12.5274 90.9083 12.3282 91.0997 12.1329 91.3106C11.9376 91.5137 11.7344 91.7051 11.5235 91.8848C11.3126 92.0567 11.0821 92.1426 10.8321 92.1426H2.0899C2.22272 92.1192 2.35944 92.0606 2.50006 91.9669C2.64069 91.8731 2.78131 91.7676 2.92194 91.6505C3.06256 91.5255 3.20319 91.3926 3.34381 91.252C3.49225 91.1114 3.64069 90.9864 3.78912 90.877C3.93756 90.7598 4.08209 90.6622 4.22272 90.584C4.37115 90.5059 4.51569 90.4669 4.65631 90.4669H13.3985ZM20.8282 80.2833C20.4688 80.5255 20.1368 80.7325 19.8321 80.9044C19.5352 81.0684 19.254 81.2051 18.9883 81.3145C18.9493 82.7286 18.9141 83.9942 18.8829 85.1114C18.8594 86.2286 18.836 87.2208 18.8126 88.088C18.7969 88.9473 18.7813 89.6934 18.7657 90.3262C18.7579 90.9512 18.7501 91.4864 18.7422 91.9317C18.7188 92.9708 18.711 93.6817 18.7188 94.0645C18.711 94.3145 18.6797 94.6426 18.6251 95.0489C18.5782 95.4473 18.4805 95.8926 18.3321 96.3848C18.1837 96.877 17.9766 97.3926 17.711 97.9317C17.4454 98.4786 17.0977 99.0137 16.668 99.5372C16.2462 100.061 15.7266 100.557 15.1094 101.025C14.5001 101.494 13.7774 101.9 12.9415 102.244C13.5274 101.932 14.0274 101.557 14.4415 101.119C14.8633 100.69 15.2149 100.221 15.4962 99.713C15.7852 99.213 16.0157 98.6895 16.1876 98.1426C16.3672 97.5958 16.5001 97.0528 16.586 96.5137C16.6797 95.9669 16.7422 95.4395 16.7735 94.9317C16.8047 94.4239 16.8204 93.959 16.8204 93.5372V81.7012C16.5782 81.7247 16.2813 81.7559 15.9297 81.795C15.586 81.834 15.1954 81.8848 14.7579 81.9473C15.1797 81.6036 15.5587 81.3419 15.8946 81.1622C16.2383 80.9825 16.5313 80.8497 16.7735 80.7637C17.0547 80.67 17.3047 80.6153 17.5235 80.5997C17.7969 80.6075 18.0977 80.6036 18.4258 80.588C18.7618 80.5723 19.0821 80.5528 19.3868 80.5294C19.6993 80.4981 19.9844 80.463 20.2422 80.4239C20.5001 80.377 20.6954 80.3301 20.8282 80.2833ZM33.4493 94.5919C33.379 94.7012 33.2813 94.834 33.1563 94.9903C33.0313 95.1387 32.9063 95.2872 32.7813 95.4356C32.6407 95.6075 32.4883 95.7833 32.3243 95.963C32.1212 96.213 31.9024 96.4551 31.668 96.6895C31.4337 96.9239 31.1993 97.1348 30.9649 97.3223C30.7383 97.502 30.5157 97.6465 30.2969 97.7559C30.0782 97.8653 29.8829 97.9161 29.711 97.9083C29.3829 97.8926 29.1563 97.6934 29.0313 97.3106C28.9063 96.92 28.8438 96.3575 28.8438 95.6231C28.8438 95.2325 28.8555 94.8106 28.879 94.3575C28.9024 93.9044 28.9376 93.3965 28.9844 92.834C28.8126 93.1075 28.6485 93.3575 28.4922 93.584C28.336 93.8106 28.1954 94.0098 28.0704 94.1817C27.9297 94.3848 27.7891 94.5684 27.6485 94.7325C27.2344 95.2403 26.8321 95.6895 26.4415 96.0801C26.0587 96.4708 25.7032 96.7989 25.3751 97.0645C25.0547 97.3301 24.7696 97.5333 24.5196 97.6739C24.2774 97.8145 24.086 97.8926 23.9454 97.9083C23.8047 97.9239 23.6329 97.877 23.4297 97.7676C23.2344 97.6583 23.0469 97.4473 22.8672 97.1348C22.6876 96.8223 22.5313 96.3848 22.3985 95.8223C22.2735 95.2598 22.2149 94.5294 22.2227 93.6309C22.2305 92.7325 22.3243 91.9434 22.504 91.2637C22.6915 90.5762 22.9297 89.9786 23.2188 89.4708C23.5157 88.9551 23.8438 88.5137 24.2032 88.1465C24.5626 87.7715 24.918 87.4473 25.2696 87.1739C25.9962 86.6192 26.6915 86.1778 27.3555 85.8497C28.0274 85.5137 28.6837 85.338 29.3243 85.3223C29.5352 85.3145 29.7422 85.3184 29.9454 85.334C30.1251 85.3497 30.3165 85.377 30.5196 85.4161C30.7305 85.4473 30.9297 85.4981 31.1172 85.5684L31.4571 85.2989C31.4102 85.5176 31.3594 85.8145 31.3047 86.1895C31.2579 86.5645 31.211 86.9864 31.1641 87.4551C31.1172 87.9239 31.0704 88.4239 31.0235 88.9551C30.9766 89.4864 30.9337 90.0215 30.8946 90.5606C30.8633 91.0919 30.8321 91.6114 30.8008 92.1192C30.7696 92.6192 30.7422 93.0762 30.7188 93.4903C30.7032 93.9044 30.6915 94.2559 30.6837 94.545C30.6837 94.834 30.6876 95.0333 30.6954 95.1426C30.7344 95.588 30.836 95.8926 31.0001 96.0567C31.1719 96.2208 31.4063 96.2051 31.7032 96.0098C31.8204 95.9161 31.9649 95.7676 32.1368 95.5645C32.2852 95.3926 32.4649 95.1583 32.6758 94.8614C32.8946 94.5567 33.1524 94.1622 33.4493 93.6778V94.5919ZM29.4415 87.127C28.6993 87.0333 28.0899 86.9864 27.6133 86.9864C27.1055 86.9864 26.6641 87.0684 26.2891 87.2325C25.9141 87.3965 25.5938 87.6192 25.3282 87.9005C25.0626 88.1739 24.8438 88.4942 24.6719 88.8614C24.5001 89.2208 24.3633 89.6036 24.2618 90.0098C24.168 90.4161 24.1016 90.8301 24.0626 91.252C24.0313 91.6739 24.0157 92.0762 24.0157 92.459C24.0157 92.5919 24.0235 92.7715 24.0391 92.9981C24.0547 93.2247 24.0821 93.4669 24.1212 93.7247C24.168 93.9825 24.2227 94.2442 24.2852 94.5098C24.3555 94.7755 24.4415 95.0176 24.543 95.2364C24.6524 95.4473 24.7774 95.6231 24.918 95.7637C25.0587 95.8965 25.2227 95.963 25.4102 95.963C25.6133 95.963 25.8594 95.8536 26.1485 95.6348C26.4454 95.4083 26.8008 95.0294 27.2149 94.4981C27.4571 94.17 27.6993 93.7755 27.9415 93.3145C28.1446 92.9239 28.3594 92.4434 28.586 91.8731C28.8204 91.3028 29.0274 90.6387 29.2071 89.8809L29.4415 87.127ZM45.7188 93.8653L45.4493 95.1426C45.0274 95.502 44.6758 95.7989 44.3946 96.0333C44.1212 96.2598 43.8985 96.4434 43.7266 96.584C43.5235 96.7481 43.3633 96.877 43.2462 96.9708C43.1133 97.0801 42.9727 97.1934 42.8243 97.3106C42.6758 97.42 42.5196 97.5176 42.3555 97.6036C42.1993 97.6895 42.0391 97.7559 41.8751 97.8028C41.7188 97.8575 41.5665 97.8731 41.418 97.8497C40.9571 97.8028 40.7266 96.8692 40.7266 95.0489C40.7266 94.2598 40.7501 93.338 40.7969 92.2833C40.5704 92.6817 40.3555 93.045 40.1524 93.3731C39.9571 93.6934 39.7813 93.9669 39.6251 94.1934C39.4454 94.459 39.2774 94.6973 39.1212 94.9083C38.7696 95.3536 38.4258 95.7559 38.0899 96.1153C37.754 96.4669 37.4376 96.7715 37.1407 97.0294C36.8438 97.2872 36.5743 97.4903 36.3321 97.6387C36.0977 97.7794 35.9063 97.8575 35.7579 97.8731C35.6094 97.8887 35.4454 97.8692 35.2657 97.8145C35.086 97.7598 34.9102 97.6387 34.7383 97.4512C34.5743 97.2559 34.4258 96.9786 34.293 96.6192C34.168 96.2598 34.0821 95.7833 34.0352 95.1895C34.0196 95.0723 34.0118 94.9551 34.0118 94.838C34.0118 94.713 34.0118 94.5919 34.0118 94.4747C34.0118 93.9044 34.0547 93.3106 34.1407 92.6934C34.2344 92.0762 34.3555 91.4903 34.504 90.9356C34.6602 90.3731 34.8399 89.8653 35.043 89.4122C35.254 88.9512 35.4766 88.5958 35.711 88.3458C35.8829 88.1583 36.0977 87.959 36.3555 87.7481C36.6133 87.5372 36.8907 87.3301 37.1876 87.127C37.4922 86.9161 37.8047 86.7169 38.1251 86.5294C38.4454 86.334 38.7501 86.1622 39.0391 86.0137C39.3282 85.8653 39.5899 85.7442 39.8243 85.6505C40.0587 85.5567 40.2462 85.4981 40.3868 85.4747H40.6212C40.6993 85.4747 40.793 85.4747 40.9024 85.4747C41.0118 85.4747 41.1368 85.4825 41.2774 85.4981C41.3321 84.795 41.3829 84.1114 41.4297 83.4473C41.4844 82.7833 41.5274 82.1583 41.5587 81.5723C41.5977 80.9786 41.629 80.4356 41.6524 79.9434C41.6758 79.4512 41.6876 79.0294 41.6876 78.6778C41.6876 78.3653 41.6602 78.1309 41.6055 77.9747C41.5587 77.8106 41.4805 77.67 41.3712 77.5528C41.3008 77.4903 41.2149 77.4512 41.1133 77.4356C41.0274 77.42 40.918 77.4278 40.7852 77.459C40.6524 77.4903 40.4962 77.5606 40.3165 77.67C40.7149 77.3965 41.0508 77.1661 41.3243 76.9786C41.5977 76.7911 41.8243 76.6426 42.004 76.5333C42.2071 76.4005 42.3751 76.2989 42.5079 76.2286C42.6719 76.1348 42.8321 76.088 42.9883 76.088C43.1524 76.0801 43.2969 76.1348 43.4219 76.252C43.5469 76.3614 43.6407 76.5372 43.7032 76.7794C43.7657 77.0215 43.7813 77.3419 43.7501 77.7403C43.7266 77.9434 43.6915 78.2989 43.6446 78.8067C43.6055 79.3067 43.5547 79.9083 43.4922 80.6114C43.4297 81.3067 43.3633 82.0723 43.293 82.9083C43.2305 83.7442 43.1641 84.5997 43.0938 85.4747C43.0235 86.3497 42.9532 87.2169 42.8829 88.0762C42.8204 88.9278 42.7657 89.7208 42.7188 90.4551C42.6719 91.1817 42.6329 91.8223 42.6016 92.377C42.5704 92.9317 42.5547 93.3419 42.5547 93.6075C42.5547 94.4122 42.6094 95.0372 42.7188 95.4825C42.8282 95.9278 43.0274 96.1505 43.3165 96.1505C43.5196 96.1505 43.7774 96.0294 44.0899 95.7872C44.3165 95.6075 44.5313 95.4122 44.7344 95.2012C44.9141 95.0215 45.0938 94.8184 45.2735 94.5919C45.4532 94.3575 45.6016 94.1153 45.7188 93.8653ZM41.1602 87.1505C40.6993 87.0645 40.3008 87.0098 39.9649 86.9864C39.629 86.9551 39.3477 86.9395 39.1212 86.9395C38.6837 86.9395 38.2969 87.0489 37.961 87.2676C37.6329 87.4786 37.3438 87.7559 37.0938 88.0997C36.8438 88.4434 36.6329 88.834 36.461 89.2715C36.2969 89.709 36.1641 90.1505 36.0626 90.5958C35.961 91.0411 35.8868 91.4708 35.8399 91.8848C35.8008 92.2911 35.7813 92.6426 35.7813 92.9395C35.7813 93.0645 35.7852 93.2286 35.793 93.4317C35.8087 93.627 35.8321 93.838 35.8633 94.0645C35.9024 94.2833 35.9532 94.5059 36.0157 94.7325C36.0782 94.959 36.1563 95.1661 36.2501 95.3536C36.3438 95.5333 36.4571 95.6817 36.5899 95.7989C36.7227 95.9083 36.879 95.963 37.0587 95.963C37.2618 95.963 37.504 95.834 37.7852 95.5762C38.0743 95.3184 38.4454 94.8926 38.8985 94.2989C39.1172 93.9942 39.3438 93.6192 39.5782 93.1739C39.7813 92.7911 40.004 92.3067 40.2462 91.7208C40.4883 91.1348 40.7305 90.4356 40.9727 89.6231L41.1602 87.1505ZM51.836 93.9942L51.5782 94.9551C51.4454 95.088 51.2813 95.2559 51.086 95.459C50.8985 95.6544 50.6876 95.8653 50.4532 96.0919C50.2266 96.3106 49.9883 96.5294 49.7383 96.7481C49.4883 96.9669 49.2422 97.1622 49.0001 97.334C48.7579 97.5059 48.5235 97.6387 48.2969 97.7325C48.0782 97.834 47.8829 97.8731 47.711 97.8497C47.4454 97.8106 47.254 97.6192 47.1368 97.2755C47.0274 96.9239 46.9727 96.3575 46.9727 95.5762C46.9727 95.4356 46.9766 95.209 46.9844 94.8965C47.0001 94.5762 47.0157 94.2051 47.0313 93.7833C47.0547 93.3614 47.0782 92.9005 47.1016 92.4005C47.1329 91.8926 47.1641 91.3848 47.1954 90.877C47.2266 90.3614 47.2579 89.8575 47.2891 89.3653C47.3282 88.8653 47.3672 88.4083 47.4063 87.9942C47.4297 87.7208 47.3751 87.5255 47.2422 87.4083C47.1094 87.2833 46.9454 87.2208 46.7501 87.2208C46.586 87.2208 46.4141 87.2598 46.2344 87.338C46.0547 87.4161 45.8907 87.5215 45.7422 87.6544C46.0547 87.3497 46.3321 87.0958 46.5743 86.8926C46.8165 86.6817 47.0235 86.5098 47.1954 86.377C47.3985 86.2286 47.5704 86.1036 47.711 86.002C47.9063 85.8848 48.0938 85.8262 48.2735 85.8262C48.461 85.8184 48.6251 85.8614 48.7657 85.9551C48.9141 86.0489 49.0274 86.1856 49.1055 86.3653C49.1915 86.545 49.2305 86.7598 49.2227 87.0098C49.2149 87.1817 49.1954 87.459 49.1641 87.8419C49.1407 88.2169 49.1094 88.6465 49.0704 89.1309C49.0391 89.6153 49.0001 90.127 48.9532 90.6661C48.9141 91.2051 48.8751 91.7247 48.836 92.2247C48.8047 92.7247 48.7735 93.1778 48.7422 93.584C48.7188 93.9903 48.7032 94.3028 48.6954 94.5215C48.6797 94.9669 48.7266 95.3262 48.836 95.5997C48.9532 95.8731 49.1368 96.0098 49.3868 96.0098C49.5743 96.0098 49.7891 95.9278 50.0313 95.7637C50.2813 95.5997 50.5274 95.4083 50.7696 95.1895C51.0118 94.9708 51.2266 94.7481 51.4141 94.5215C51.6094 94.295 51.7501 94.1192 51.836 93.9942ZM49.8438 76.709C49.8594 77.0919 49.8477 77.4356 49.8087 77.7403C49.7774 78.0372 49.7383 78.2911 49.6915 78.502C49.6368 78.752 49.5704 78.9708 49.4922 79.1583C49.3985 79.3458 49.254 79.5489 49.0587 79.7676C48.8946 79.9551 48.668 80.1739 48.379 80.4239C48.0977 80.6661 47.7305 80.9239 47.2774 81.1973C47.4258 80.9005 47.543 80.588 47.629 80.2598C47.7149 79.9239 47.7813 79.6153 47.8282 79.334C47.8829 79.0059 47.918 78.6817 47.9337 78.3614L49.8438 76.709ZM55.2462 77.3067C55.2618 77.4551 55.2696 77.6505 55.2696 77.8926C55.2696 78.1348 55.2696 78.42 55.2696 78.7481C55.2696 79.3028 55.2618 79.9512 55.2462 80.6934C55.2305 81.4278 55.2071 82.213 55.1758 83.0489C55.1524 83.877 55.1172 84.7286 55.0704 85.6036C55.0313 86.4708 54.9844 87.3145 54.9297 88.1348L54.8126 89.6934C54.961 89.42 55.1016 89.1817 55.2344 88.9786C55.3672 88.7676 55.4883 88.588 55.5977 88.4395C55.7227 88.2676 55.836 88.1192 55.9376 87.9942C56.2266 87.6817 56.5313 87.377 56.8516 87.0801C57.1719 86.7755 57.4922 86.5059 57.8126 86.2715C58.1407 86.0294 58.4649 85.838 58.7852 85.6973C59.1055 85.5489 59.4063 85.4747 59.6876 85.4747C59.9141 85.4747 60.1172 85.5294 60.2969 85.6387C60.4766 85.7481 60.6251 85.8887 60.7422 86.0606C60.8672 86.2325 60.961 86.4239 61.0235 86.6348C61.0938 86.838 61.129 87.0333 61.129 87.2208C61.129 87.7364 61.004 88.2208 60.754 88.6739C60.5118 89.1192 60.2032 89.5333 59.8282 89.9161C59.461 90.2989 59.0626 90.6426 58.6329 90.9473C58.2032 91.252 57.8008 91.5137 57.4258 91.7325C57.668 92.0606 57.9024 92.3848 58.129 92.7051C58.3555 93.0176 58.5587 93.2989 58.7383 93.5489C58.9415 93.8458 59.1368 94.1309 59.3243 94.4044C59.5118 94.6544 59.6837 94.8965 59.8399 95.1309C59.9962 95.3575 60.1524 95.5567 60.3087 95.7286C60.4649 95.9005 60.6212 96.0372 60.7774 96.1387C60.9415 96.2403 61.1212 96.2911 61.3165 96.2911C61.4337 96.2911 61.5587 96.2715 61.6915 96.2325C61.8321 96.1934 61.9805 96.1192 62.1368 96.0098C61.9337 96.1973 61.7188 96.4005 61.4922 96.6192C61.2735 96.838 61.0469 97.0372 60.8126 97.2169C60.586 97.3965 60.3555 97.545 60.1212 97.6622C59.8868 97.7872 59.6524 97.8497 59.418 97.8497C59.168 97.8497 58.9337 97.7794 58.7149 97.6387C58.504 97.5059 58.3399 97.338 58.2227 97.1348C58.1602 97.0411 58.0626 96.877 57.9297 96.6426C57.8047 96.4005 57.6563 96.1309 57.4844 95.834C57.3204 95.5294 57.1407 95.209 56.9454 94.8731C56.7579 94.5372 56.5665 94.2208 56.3712 93.9239C56.1837 93.627 56.004 93.3692 55.8321 93.1505C55.6602 92.9239 55.5118 92.7715 55.3868 92.6934C55.8399 92.4044 56.2813 92.1153 56.711 91.8262C57.1407 91.5372 57.5235 91.2247 57.8594 90.8887C58.1954 90.5528 58.4649 90.1895 58.668 89.7989C58.879 89.4005 58.9844 88.9512 58.9844 88.4512C58.9844 88.0528 58.8985 87.7247 58.7266 87.4669C58.5626 87.209 58.3047 87.088 57.9532 87.1036C57.461 87.127 57.0508 87.3223 56.7227 87.6895C56.3946 88.0489 56.1094 88.5176 55.8672 89.0958C55.7813 89.3067 55.6758 89.6075 55.5508 89.9981C55.4415 90.334 55.3008 90.7794 55.129 91.334C54.9649 91.8887 54.7696 92.5919 54.543 93.4434L54.3555 96.7715L52.4805 98.2364C52.6055 96.7286 52.7266 95.2559 52.8438 93.8184C52.9688 92.3731 53.0782 90.9551 53.1719 89.5645C53.2657 88.1661 53.3399 86.7872 53.3946 85.4278C53.4571 84.0606 53.4883 82.6973 53.4883 81.338C53.4883 80.8536 53.4766 80.4083 53.4532 80.002C53.4376 79.5958 53.4102 79.2403 53.3712 78.9356C53.3399 78.6231 53.293 78.3653 53.2305 78.1622C53.1758 77.959 53.1094 77.8184 53.0313 77.7403C52.9219 77.6622 52.7891 77.6231 52.6329 77.6231C52.5001 77.6231 52.3321 77.6622 52.129 77.7403C51.9337 77.8106 51.6993 77.963 51.4258 78.1973C51.5899 78.0567 51.7891 77.8692 52.0235 77.6348C52.2657 77.4005 52.5196 77.1739 52.7852 76.9551C53.0587 76.7286 53.3282 76.5372 53.5938 76.3809C53.8594 76.2169 54.0977 76.1348 54.3087 76.1348C54.5352 76.1348 54.7383 76.2247 54.918 76.4044C55.0977 76.584 55.2071 76.8848 55.2462 77.3067ZM62.1837 95.9864C62.168 96.002 62.1524 96.0098 62.1368 96.0098C62.1524 96.0098 62.168 96.002 62.1837 95.9864ZM74.5587 94.5919C74.4883 94.7012 74.3907 94.834 74.2657 94.9903C74.1407 95.1387 74.0157 95.2872 73.8907 95.4356C73.7501 95.6075 73.5977 95.7833 73.4337 95.963C73.2305 96.213 73.0118 96.4551 72.7774 96.6895C72.543 96.9239 72.3087 97.1348 72.0743 97.3223C71.8477 97.502 71.6251 97.6465 71.4063 97.7559C71.1876 97.8653 70.9922 97.9161 70.8204 97.9083C70.4922 97.8926 70.2657 97.6934 70.1407 97.3106C70.0157 96.92 69.9532 96.3575 69.9532 95.6231C69.9532 95.2325 69.9649 94.8106 69.9883 94.3575C70.0118 93.9044 70.0469 93.3965 70.0938 92.834C69.9219 93.1075 69.7579 93.3575 69.6016 93.584C69.4454 93.8106 69.3047 94.0098 69.1797 94.1817C69.0391 94.3848 68.8985 94.5684 68.7579 94.7325C68.3438 95.2403 67.9415 95.6895 67.5508 96.0801C67.168 96.4708 66.8126 96.7989 66.4844 97.0645C66.1641 97.3301 65.879 97.5333 65.629 97.6739C65.3868 97.8145 65.1954 97.8926 65.0547 97.9083C64.9141 97.9239 64.7422 97.877 64.5391 97.7676C64.3438 97.6583 64.1563 97.4473 63.9766 97.1348C63.7969 96.8223 63.6407 96.3848 63.5079 95.8223C63.3829 95.2598 63.3243 94.5294 63.3321 93.6309C63.3399 92.7325 63.4337 91.9434 63.6133 91.2637C63.8008 90.5762 64.0391 89.9786 64.3282 89.4708C64.6251 88.9551 64.9532 88.5137 65.3126 88.1465C65.6719 87.7715 66.0274 87.4473 66.379 87.1739C67.1055 86.6192 67.8008 86.1778 68.4649 85.8497C69.1368 85.5137 69.793 85.338 70.4337 85.3223C70.6446 85.3145 70.8516 85.3184 71.0547 85.334C71.2344 85.3497 71.4258 85.377 71.629 85.4161C71.8399 85.4473 72.0391 85.4981 72.2266 85.5684L72.5665 85.2989C72.5196 85.5176 72.4688 85.8145 72.4141 86.1895C72.3672 86.5645 72.3204 86.9864 72.2735 87.4551C72.2266 87.9239 72.1797 88.4239 72.1329 88.9551C72.086 89.4864 72.043 90.0215 72.004 90.5606C71.9727 91.0919 71.9415 91.6114 71.9102 92.1192C71.879 92.6192 71.8516 93.0762 71.8282 93.4903C71.8126 93.9044 71.8008 94.2559 71.793 94.545C71.793 94.834 71.7969 95.0333 71.8047 95.1426C71.8438 95.588 71.9454 95.8926 72.1094 96.0567C72.2813 96.2208 72.5157 96.2051 72.8126 96.0098C72.9297 95.9161 73.0743 95.7676 73.2462 95.5645C73.3946 95.3926 73.5743 95.1583 73.7852 94.8614C74.004 94.5567 74.2618 94.1622 74.5587 93.6778V94.5919ZM70.5508 87.127C69.8087 87.0333 69.1993 86.9864 68.7227 86.9864C68.2149 86.9864 67.7735 87.0684 67.3985 87.2325C67.0235 87.3965 66.7032 87.6192 66.4376 87.9005C66.1719 88.1739 65.9532 88.4942 65.7813 88.8614C65.6094 89.2208 65.4727 89.6036 65.3712 90.0098C65.2774 90.4161 65.211 90.8301 65.1719 91.252C65.1407 91.6739 65.1251 92.0762 65.1251 92.459C65.1251 92.5919 65.1329 92.7715 65.1485 92.9981C65.1641 93.2247 65.1915 93.4669 65.2305 93.7247C65.2774 93.9825 65.3321 94.2442 65.3946 94.5098C65.4649 94.7755 65.5508 95.0176 65.6524 95.2364C65.7618 95.4473 65.8868 95.6231 66.0274 95.7637C66.168 95.8965 66.3321 95.963 66.5196 95.963C66.7227 95.963 66.9688 95.8536 67.2579 95.6348C67.5547 95.4083 67.9102 95.0294 68.3243 94.4981C68.5665 94.17 68.8087 93.7755 69.0508 93.3145C69.254 92.9239 69.4688 92.4434 69.6954 91.8731C69.9297 91.3028 70.1368 90.6387 70.3165 89.8809L70.5508 87.127ZM78.5196 86.0958C78.5743 86.2364 78.6094 86.4434 78.6251 86.7169C78.6407 86.9903 78.6485 87.3028 78.6485 87.6544C78.6485 87.9044 78.6446 88.17 78.6368 88.4512C78.629 88.7325 78.6172 89.0176 78.6016 89.3067C78.8282 88.9786 79.0743 88.6426 79.3399 88.2989C79.6055 87.9473 79.8829 87.6153 80.1719 87.3028C80.4688 86.9825 80.7774 86.6895 81.0977 86.4239C81.418 86.1583 81.7462 85.9434 82.0821 85.7794C82.4258 85.6075 82.7735 85.4981 83.1251 85.4512C83.4844 85.3965 83.8477 85.4278 84.2149 85.545C84.418 85.6075 84.5821 85.7012 84.7071 85.8262C84.8399 85.9512 84.9454 86.1075 85.0235 86.295C85.1016 86.4747 85.1524 86.6817 85.1758 86.9161C85.2071 87.1505 85.2227 87.4044 85.2227 87.6778C85.2227 88.2872 85.1993 88.8887 85.1524 89.4825C85.1055 90.0762 85.0508 90.6661 84.9883 91.252C84.9337 91.8301 84.8829 92.4083 84.836 92.9864C84.7891 93.5645 84.7657 94.1387 84.7657 94.709C84.7657 95.0997 84.7969 95.4083 84.8594 95.6348C84.9297 95.8614 85.0508 95.9942 85.2227 96.0333C85.3946 96.0255 85.586 95.9512 85.7969 95.8106C85.9766 95.7012 86.1915 95.5215 86.4415 95.2715C86.6915 95.0215 86.9649 94.6661 87.2618 94.2051L87.168 95.0958C86.9571 95.3301 86.711 95.6114 86.4297 95.9395C86.1563 96.2676 85.8672 96.5801 85.5626 96.877C85.2657 97.1661 84.961 97.4083 84.6485 97.6036C84.3438 97.7989 84.0547 97.8809 83.7813 97.8497C83.4844 97.8106 83.2422 97.6426 83.0547 97.3458C82.8672 97.0411 82.7735 96.5645 82.7735 95.9161C82.7735 95.5958 82.7852 95.2208 82.8087 94.7911C82.8321 94.3536 82.8633 93.8965 82.9024 93.42C82.9415 92.9434 82.9805 92.459 83.0196 91.9669C83.0665 91.4747 83.1094 91.0059 83.1485 90.5606C83.1954 90.1153 83.2344 89.709 83.2657 89.3419C83.3047 88.9669 83.3321 88.6622 83.3477 88.4278C83.3633 88.1934 83.3399 87.9825 83.2774 87.795C83.2227 87.5997 83.1329 87.4317 83.0079 87.2911C82.8907 87.1505 82.7501 87.045 82.586 86.9747C82.4219 86.8965 82.2422 86.8575 82.0469 86.8575C81.836 86.8575 81.6133 86.9122 81.379 87.0215C81.1446 87.1231 80.9063 87.2872 80.6641 87.5137C80.5469 87.6309 80.4024 87.795 80.2305 88.0059C80.0665 88.209 79.8868 88.4786 79.6915 88.8145C79.4962 89.1426 79.2891 89.5372 79.0704 89.9981C78.8594 90.459 78.6524 90.9981 78.4493 91.6153C78.4337 91.795 78.4219 91.9708 78.4141 92.1426C78.4063 92.3145 78.4024 92.4747 78.4024 92.6231C78.3868 92.9981 78.3633 93.3965 78.3321 93.8184C78.3087 94.1778 78.2813 94.584 78.2501 95.0372C78.2188 95.4903 78.1837 95.9512 78.1446 96.42L76.293 98.0489C76.379 96.1505 76.4532 94.584 76.5157 93.3497C76.586 92.1075 76.6407 91.127 76.6797 90.4083C76.7266 89.5645 76.7657 88.92 76.7969 88.4747C76.8204 87.9512 76.7501 87.5801 76.586 87.3614C76.4219 87.1426 76.2188 87.0333 75.9766 87.0333C75.7891 87.0333 75.586 87.0919 75.3672 87.209C75.1563 87.3262 74.9532 87.4747 74.7579 87.6544C74.9532 87.4356 75.168 87.2012 75.4024 86.9512C75.6446 86.7012 75.8985 86.4708 76.1641 86.2598C76.4297 86.0489 76.6993 85.8731 76.9727 85.7325C77.254 85.5919 77.5313 85.5215 77.8047 85.5215C77.9766 85.5215 78.1212 85.5684 78.2383 85.6622C78.3633 85.7481 78.4571 85.8926 78.5196 86.0958ZM116.852 96.2442C116.664 96.4005 116.402 96.5762 116.066 96.7715C115.731 96.9669 115.336 97.1505 114.883 97.3223C114.438 97.4942 113.945 97.6387 113.406 97.7559C112.867 97.8731 112.305 97.9317 111.719 97.9317C111.82 97.7442 111.902 97.5762 111.965 97.4278C112.035 97.2715 112.09 97.1192 112.129 96.9708C112.176 96.8223 112.207 96.6739 112.223 96.5255C112.238 96.377 112.246 96.213 112.246 96.0333C112.246 95.8301 112.234 95.4786 112.211 94.9786C112.188 94.4708 112.16 93.877 112.129 93.1973C112.098 92.5176 112.063 91.7794 112.023 90.9825C111.984 90.1856 111.945 89.3965 111.906 88.6153C111.875 87.834 111.844 87.0919 111.813 86.3887C111.789 85.6856 111.773 85.084 111.766 84.584C111.352 85.3106 110.941 85.9825 110.535 86.5997C110.137 87.209 109.742 87.795 109.352 88.3575C108.969 88.92 108.594 89.4708 108.227 90.0098C107.867 90.5489 107.516 91.1075 107.172 91.6856C106.836 92.2637 106.516 92.877 106.211 93.5255C105.906 94.1661 105.621 94.8731 105.356 95.6465L103.316 97.9317C103.332 97.6583 103.281 97.3301 103.164 96.9473C103.047 96.5567 102.91 96.1817 102.754 95.8223C102.574 95.4005 102.371 94.9669 102.145 94.5215C101.879 94.0372 101.523 93.3731 101.078 92.5294C100.688 91.8184 100.176 90.8692 99.543 89.6817C98.9102 88.4942 98.1212 87.0176 97.1758 85.252C97.1212 86.2051 97.0665 87.17 97.0118 88.1465C96.9649 89.1231 96.8985 90.0919 96.8126 91.0528C96.7266 92.0059 96.6055 92.9434 96.4493 93.8653C96.3008 94.7794 96.1016 95.6465 95.8516 96.4669C95.9844 96.5137 96.1329 96.5489 96.2969 96.5723C96.461 96.5958 96.6251 96.6075 96.7891 96.6075C96.961 96.6075 97.1251 96.5997 97.2813 96.584C97.4376 96.5684 97.5782 96.5528 97.7032 96.5372C97.8438 96.5137 97.9805 96.4903 98.1133 96.4669C97.7852 96.7169 97.4805 96.9317 97.1993 97.1114C96.9258 97.2911 96.6407 97.4434 96.3438 97.5684C96.0547 97.6934 95.7344 97.7833 95.3829 97.838C95.0313 97.9005 94.6133 97.9317 94.129 97.9317C94.3477 97.7208 94.5352 97.3731 94.6915 96.8887C94.8555 96.3965 94.9922 95.8145 95.1016 95.1426C95.2188 94.463 95.3165 93.713 95.3946 92.8926C95.4727 92.0723 95.5391 91.2325 95.5938 90.3731C95.6563 89.5059 95.7032 88.6387 95.7344 87.7715C95.7735 86.9044 95.8126 86.084 95.8516 85.3106C95.8907 84.5294 95.9297 83.8184 95.9688 83.1778C96.0079 82.5294 96.0587 81.9981 96.1212 81.584L97.8204 79.709C97.7579 79.834 97.7266 79.9747 97.7266 80.1309C97.7266 80.2872 97.7422 80.4356 97.7735 80.5762C97.8047 80.7403 97.8516 80.9083 97.9141 81.0801C97.9532 81.1817 98.0587 81.4044 98.2305 81.7481C98.4024 82.0919 98.6172 82.5176 98.8751 83.0255C99.1329 83.5255 99.4258 84.0958 99.754 84.7364C100.09 85.3692 100.438 86.0333 100.797 86.7286C101.156 87.4161 101.52 88.1153 101.887 88.8262C102.254 89.5294 102.606 90.2051 102.941 90.8536C103.277 91.502 103.586 92.1075 103.867 92.67C104.148 93.2247 104.383 93.6973 104.57 94.088C105.234 93.0567 105.906 92.0137 106.586 90.959C107.273 89.9044 107.93 88.8536 108.555 87.8067C109.188 86.7598 109.773 85.7208 110.313 84.6895C110.859 83.6505 111.328 82.6309 111.719 81.6309L114.168 79.709C114.121 81.1544 114.109 82.5411 114.133 83.8692C114.156 85.1895 114.191 86.4786 114.238 87.7364C114.293 88.9942 114.344 90.2286 114.391 91.4395C114.438 92.6505 114.461 93.8614 114.461 95.0723C114.461 95.4239 114.438 95.713 114.391 95.9395C114.352 96.1583 114.277 96.3106 114.168 96.3965C114.527 96.4434 114.895 96.4669 115.27 96.4669C115.582 96.4669 115.875 96.4512 116.148 96.42C116.43 96.3809 116.664 96.3223 116.852 96.2442ZM129.027 94.5919C128.957 94.7012 128.859 94.834 128.734 94.9903C128.609 95.1387 128.484 95.2872 128.359 95.4356C128.219 95.6075 128.066 95.7833 127.902 95.963C127.699 96.213 127.481 96.4551 127.246 96.6895C127.012 96.9239 126.777 97.1348 126.543 97.3223C126.316 97.502 126.094 97.6465 125.875 97.7559C125.656 97.8653 125.461 97.9161 125.289 97.9083C124.961 97.8926 124.734 97.6934 124.609 97.3106C124.484 96.92 124.422 96.3575 124.422 95.6231C124.422 95.2325 124.434 94.8106 124.457 94.3575C124.481 93.9044 124.516 93.3965 124.563 92.834C124.391 93.1075 124.227 93.3575 124.07 93.584C123.914 93.8106 123.773 94.0098 123.648 94.1817C123.508 94.3848 123.367 94.5684 123.227 94.7325C122.813 95.2403 122.41 95.6895 122.02 96.0801C121.637 96.4708 121.281 96.7989 120.953 97.0645C120.633 97.3301 120.348 97.5333 120.098 97.6739C119.856 97.8145 119.664 97.8926 119.523 97.9083C119.383 97.9239 119.211 97.877 119.008 97.7676C118.813 97.6583 118.625 97.4473 118.445 97.1348C118.266 96.8223 118.109 96.3848 117.977 95.8223C117.852 95.2598 117.793 94.5294 117.801 93.6309C117.809 92.7325 117.902 91.9434 118.082 91.2637C118.27 90.5762 118.508 89.9786 118.797 89.4708C119.094 88.9551 119.422 88.5137 119.781 88.1465C120.141 87.7715 120.496 87.4473 120.848 87.1739C121.574 86.6192 122.27 86.1778 122.934 85.8497C123.606 85.5137 124.262 85.338 124.902 85.3223C125.113 85.3145 125.32 85.3184 125.523 85.334C125.703 85.3497 125.895 85.377 126.098 85.4161C126.309 85.4473 126.508 85.4981 126.695 85.5684L127.035 85.2989C126.988 85.5176 126.938 85.8145 126.883 86.1895C126.836 86.5645 126.789 86.9864 126.742 87.4551C126.695 87.9239 126.648 88.4239 126.602 88.9551C126.555 89.4864 126.512 90.0215 126.473 90.5606C126.441 91.0919 126.41 91.6114 126.379 92.1192C126.348 92.6192 126.32 93.0762 126.297 93.4903C126.281 93.9044 126.27 94.2559 126.262 94.545C126.262 94.834 126.266 95.0333 126.273 95.1426C126.313 95.588 126.414 95.8926 126.578 96.0567C126.75 96.2208 126.984 96.2051 127.281 96.0098C127.398 95.9161 127.543 95.7676 127.715 95.5645C127.863 95.3926 128.043 95.1583 128.254 94.8614C128.473 94.5567 128.731 94.1622 129.027 93.6778V94.5919ZM125.02 87.127C124.277 87.0333 123.668 86.9864 123.191 86.9864C122.684 86.9864 122.242 87.0684 121.867 87.2325C121.492 87.3965 121.172 87.6192 120.906 87.9005C120.641 88.1739 120.422 88.4942 120.25 88.8614C120.078 89.2208 119.941 89.6036 119.84 90.0098C119.746 90.4161 119.68 90.8301 119.641 91.252C119.609 91.6739 119.594 92.0762 119.594 92.459C119.594 92.5919 119.602 92.7715 119.617 92.9981C119.633 93.2247 119.66 93.4669 119.699 93.7247C119.746 93.9825 119.801 94.2442 119.863 94.5098C119.934 94.7755 120.02 95.0176 120.121 95.2364C120.231 95.4473 120.356 95.6231 120.496 95.7637C120.637 95.8965 120.801 95.963 120.988 95.963C121.191 95.963 121.438 95.8536 121.727 95.6348C122.023 95.4083 122.379 95.0294 122.793 94.4981C123.035 94.17 123.277 93.7755 123.52 93.3145C123.723 92.9239 123.938 92.4434 124.164 91.8731C124.398 91.3028 124.606 90.6387 124.785 89.8809L125.02 87.127ZM135.754 85.9551C135.715 86.0489 135.625 86.1661 135.484 86.3067C135.367 86.4317 135.191 86.5958 134.957 86.7989C134.731 86.9942 134.41 87.2403 133.996 87.5372C134.004 87.4044 133.984 87.295 133.938 87.209C133.898 87.1153 133.848 87.045 133.785 86.9981C133.715 86.9434 133.637 86.9044 133.551 86.8809C133.051 86.7872 132.656 86.7872 132.367 86.8809C132.297 86.9122 132.242 86.9903 132.203 87.1153C132.172 87.2325 132.156 87.3809 132.156 87.5606C132.156 87.9903 132.234 88.377 132.391 88.7208C132.555 89.0567 132.758 89.3731 133 89.67C133.242 89.959 133.504 90.2364 133.785 90.502C134.066 90.7676 134.328 91.0411 134.57 91.3223C134.813 91.5958 135.012 91.8848 135.168 92.1895C135.332 92.4942 135.414 92.8301 135.414 93.1973C135.414 93.5098 135.348 93.834 135.215 94.17C135.09 94.4981 134.895 94.7989 134.629 95.0723C134.402 95.3067 134.156 95.5489 133.891 95.7989C133.633 96.0489 133.363 96.2872 133.082 96.5137C132.809 96.7403 132.527 96.9473 132.238 97.1348C131.949 97.3223 131.664 97.4747 131.383 97.5919C130.906 97.7637 130.449 97.8497 130.012 97.8497C129.715 97.8497 129.457 97.8067 129.238 97.7208C129.02 97.6348 128.887 97.502 128.84 97.3223C128.801 97.1817 128.844 97.0098 128.969 96.8067C129.094 96.5958 129.25 96.3887 129.438 96.1856C129.625 95.9747 129.82 95.7794 130.023 95.5997C130.234 95.4122 130.398 95.2676 130.516 95.1661C130.5 95.5411 130.586 95.8106 130.773 95.9747C130.969 96.1309 131.277 96.2208 131.699 96.2442C131.91 96.2598 132.133 96.2481 132.367 96.209C132.602 96.1622 132.816 96.0958 133.012 96.0098C133.215 95.9161 133.379 95.7989 133.504 95.6583C133.637 95.5176 133.699 95.3536 133.691 95.1661C133.676 94.7286 133.582 94.3301 133.41 93.9708C133.246 93.6036 133.039 93.2598 132.789 92.9395C132.547 92.6114 132.285 92.295 132.004 91.9903C131.731 91.6778 131.473 91.3614 131.231 91.0411C130.996 90.7208 130.797 90.3809 130.633 90.0215C130.477 89.6622 130.398 89.2715 130.398 88.8497C130.398 88.67 130.418 88.4981 130.457 88.334C130.496 88.17 130.566 88.0137 130.668 87.8653C130.848 87.5997 131.094 87.3223 131.406 87.0333C131.719 86.7442 132.051 86.4786 132.402 86.2364C132.754 85.9942 133.102 85.7911 133.445 85.627C133.789 85.4551 134.086 85.3536 134.336 85.3223C134.578 85.2911 134.793 85.2911 134.981 85.3223C135.176 85.3458 135.336 85.3887 135.461 85.4512C135.586 85.5137 135.672 85.5919 135.719 85.6856C135.773 85.7715 135.785 85.8614 135.754 85.9551ZM148.457 94.5919C148.387 94.7012 148.289 94.834 148.164 94.9903C148.039 95.1387 147.914 95.2872 147.789 95.4356C147.648 95.6075 147.496 95.7833 147.332 95.963C147.129 96.213 146.91 96.4551 146.676 96.6895C146.441 96.9239 146.207 97.1348 145.973 97.3223C145.746 97.502 145.523 97.6465 145.305 97.7559C145.086 97.8653 144.891 97.9161 144.719 97.9083C144.391 97.8926 144.164 97.6934 144.039 97.3106C143.914 96.92 143.852 96.3575 143.852 95.6231C143.852 95.2325 143.863 94.8106 143.887 94.3575C143.91 93.9044 143.945 93.3965 143.992 92.834C143.82 93.1075 143.656 93.3575 143.5 93.584C143.344 93.8106 143.203 94.0098 143.078 94.1817C142.938 94.3848 142.797 94.5684 142.656 94.7325C142.242 95.2403 141.84 95.6895 141.449 96.0801C141.066 96.4708 140.711 96.7989 140.383 97.0645C140.063 97.3301 139.777 97.5333 139.527 97.6739C139.285 97.8145 139.094 97.8926 138.953 97.9083C138.813 97.9239 138.641 97.877 138.438 97.7676C138.242 97.6583 138.055 97.4473 137.875 97.1348C137.695 96.8223 137.539 96.3848 137.406 95.8223C137.281 95.2598 137.223 94.5294 137.231 93.6309C137.238 92.7325 137.332 91.9434 137.512 91.2637C137.699 90.5762 137.938 89.9786 138.227 89.4708C138.523 88.9551 138.852 88.5137 139.211 88.1465C139.57 87.7715 139.926 87.4473 140.277 87.1739C141.004 86.6192 141.699 86.1778 142.363 85.8497C143.035 85.5137 143.691 85.338 144.332 85.3223C144.543 85.3145 144.75 85.3184 144.953 85.334C145.133 85.3497 145.324 85.377 145.527 85.4161C145.738 85.4473 145.938 85.4981 146.125 85.5684L146.465 85.2989C146.418 85.5176 146.367 85.8145 146.313 86.1895C146.266 86.5645 146.219 86.9864 146.172 87.4551C146.125 87.9239 146.078 88.4239 146.031 88.9551C145.984 89.4864 145.941 90.0215 145.902 90.5606C145.871 91.0919 145.84 91.6114 145.809 92.1192C145.777 92.6192 145.75 93.0762 145.727 93.4903C145.711 93.9044 145.699 94.2559 145.691 94.545C145.691 94.834 145.695 95.0333 145.703 95.1426C145.742 95.588 145.844 95.8926 146.008 96.0567C146.18 96.2208 146.414 96.2051 146.711 96.0098C146.828 95.9161 146.973 95.7676 147.145 95.5645C147.293 95.3926 147.473 95.1583 147.684 94.8614C147.902 94.5567 148.16 94.1622 148.457 93.6778V94.5919ZM144.449 87.127C143.707 87.0333 143.098 86.9864 142.621 86.9864C142.113 86.9864 141.672 87.0684 141.297 87.2325C140.922 87.3965 140.602 87.6192 140.336 87.9005C140.07 88.1739 139.852 88.4942 139.68 88.8614C139.508 89.2208 139.371 89.6036 139.27 90.0098C139.176 90.4161 139.109 90.8301 139.07 91.252C139.039 91.6739 139.023 92.0762 139.023 92.459C139.023 92.5919 139.031 92.7715 139.047 92.9981C139.063 93.2247 139.09 93.4669 139.129 93.7247C139.176 93.9825 139.231 94.2442 139.293 94.5098C139.363 94.7755 139.449 95.0176 139.551 95.2364C139.66 95.4473 139.785 95.6231 139.926 95.7637C140.066 95.8965 140.231 95.963 140.418 95.963C140.621 95.963 140.867 95.8536 141.156 95.6348C141.453 95.4083 141.809 95.0294 142.223 94.4981C142.465 94.17 142.707 93.7755 142.949 93.3145C143.152 92.9239 143.367 92.4434 143.594 91.8731C143.828 91.3028 144.035 90.6387 144.215 89.8809L144.449 87.127ZM165.379 92.6934C165.379 93.0919 165.25 93.502 164.992 93.9239C164.734 94.3458 164.395 94.7559 163.973 95.1544C163.559 95.545 163.09 95.9161 162.566 96.2676C162.051 96.6192 161.527 96.9317 160.996 97.2051C160.473 97.4708 159.969 97.6817 159.484 97.838C159 98.002 158.59 98.088 158.254 98.0958C157.934 98.1114 157.59 98.084 157.223 98.0137C156.856 97.9434 156.504 97.8536 156.168 97.7442C155.84 97.6426 155.543 97.5333 155.277 97.4161C155.02 97.2911 154.844 97.1817 154.75 97.088C154.695 97.0255 154.648 96.959 154.609 96.8887C154.578 96.8106 154.563 96.7286 154.563 96.6426C154.563 96.5489 154.586 96.4551 154.633 96.3614C154.688 96.2598 154.773 96.1583 154.891 96.0567C155 95.9708 155.137 95.8614 155.301 95.7286C155.441 95.6192 155.621 95.4786 155.84 95.3067C156.059 95.127 156.328 94.9122 156.648 94.6622C156.531 94.7794 156.457 94.8887 156.426 94.9903C156.395 95.0919 156.383 95.1856 156.391 95.2715C156.398 95.3653 156.43 95.4512 156.484 95.5294C156.563 95.6309 156.699 95.7442 156.895 95.8692C157.09 95.9942 157.324 96.1114 157.598 96.2208C157.879 96.3223 158.191 96.4083 158.535 96.4786C158.887 96.5489 159.25 96.584 159.625 96.584C160.086 96.584 160.543 96.5411 160.996 96.4551C161.449 96.3614 161.856 96.209 162.215 95.9981C162.582 95.7872 162.875 95.5098 163.094 95.1661C163.32 94.8145 163.434 94.3809 163.434 93.8653C163.434 93.3887 163.32 92.9708 163.094 92.6114C162.875 92.2442 162.586 91.9161 162.227 91.627C161.867 91.338 161.453 91.0762 160.984 90.8419C160.523 90.5997 160.051 90.3614 159.566 90.127C159.09 89.8926 158.617 89.6544 158.148 89.4122C157.688 89.17 157.277 88.9005 156.918 88.6036C156.559 88.2989 156.266 87.959 156.039 87.584C155.82 87.2012 155.711 86.7598 155.711 86.2598C155.711 85.7755 155.828 85.3028 156.063 84.8419C156.305 84.3731 156.621 83.9356 157.012 83.5294C157.402 83.1153 157.848 82.7325 158.348 82.3809C158.856 82.0294 159.375 81.7286 159.906 81.4786C160.438 81.2208 160.957 81.0215 161.465 80.8809C161.981 80.7325 162.445 80.6544 162.859 80.6465C163.258 80.6387 163.641 80.6583 164.008 80.7051C164.375 80.7442 164.684 80.8067 164.934 80.8926C165.184 80.9786 165.356 81.088 165.449 81.2208C165.543 81.3458 165.52 81.4903 165.379 81.6544C165.262 81.7872 165.117 81.9278 164.945 82.0762C164.789 82.209 164.598 82.3575 164.371 82.5215C164.145 82.6856 163.867 82.8614 163.539 83.0489C163.602 82.9551 163.637 82.8731 163.645 82.8028C163.652 82.7247 163.648 82.6622 163.633 82.6153C163.609 82.5606 163.578 82.5137 163.539 82.4747C163.484 82.4278 163.387 82.377 163.246 82.3223C163.113 82.2676 162.945 82.213 162.742 82.1583C162.539 82.1036 162.309 82.0606 162.051 82.0294C161.793 81.9903 161.52 81.9708 161.231 81.9708C160.762 81.9708 160.309 82.0294 159.871 82.1465C159.441 82.2559 159.059 82.4278 158.723 82.6622C158.395 82.8965 158.129 83.1934 157.926 83.5528C157.731 83.9122 157.633 84.334 157.633 84.8184C157.633 85.3497 157.742 85.8145 157.961 86.213C158.188 86.6114 158.481 86.9669 158.84 87.2794C159.207 87.584 159.621 87.8614 160.082 88.1114C160.551 88.3614 161.023 88.6036 161.5 88.838C161.984 89.0645 162.457 89.2989 162.918 89.5411C163.387 89.7833 163.801 90.0528 164.16 90.3497C164.527 90.6465 164.82 90.9864 165.039 91.3692C165.266 91.7442 165.379 92.1856 165.379 92.6934ZM189.977 96.2442C189.789 96.4005 189.527 96.5762 189.191 96.7715C188.856 96.9669 188.461 97.1505 188.008 97.3223C187.563 97.4942 187.07 97.6387 186.531 97.7559C185.992 97.8731 185.43 97.9317 184.844 97.9317C184.945 97.7442 185.027 97.5762 185.09 97.4278C185.16 97.2715 185.215 97.1192 185.254 96.9708C185.301 96.8223 185.332 96.6739 185.348 96.5255C185.363 96.377 185.371 96.213 185.371 96.0333C185.371 95.8301 185.359 95.4786 185.336 94.9786C185.313 94.4708 185.285 93.877 185.254 93.1973C185.223 92.5176 185.188 91.7794 185.148 90.9825C185.109 90.1856 185.07 89.3965 185.031 88.6153C185 87.834 184.969 87.0919 184.938 86.3887C184.914 85.6856 184.898 85.084 184.891 84.584C184.477 85.3106 184.066 85.9825 183.66 86.5997C183.262 87.209 182.867 87.795 182.477 88.3575C182.094 88.92 181.719 89.4708 181.352 90.0098C180.992 90.5489 180.641 91.1075 180.297 91.6856C179.961 92.2637 179.641 92.877 179.336 93.5255C179.031 94.1661 178.746 94.8731 178.481 95.6465L176.441 97.9317C176.457 97.6583 176.406 97.3301 176.289 96.9473C176.172 96.5567 176.035 96.1817 175.879 95.8223C175.699 95.4005 175.496 94.9669 175.27 94.5215C175.004 94.0372 174.648 93.3731 174.203 92.5294C173.813 91.8184 173.301 90.8692 172.668 89.6817C172.035 88.4942 171.246 87.0176 170.301 85.252C170.246 86.2051 170.191 87.17 170.137 88.1465C170.09 89.1231 170.023 90.0919 169.938 91.0528C169.852 92.0059 169.731 92.9434 169.574 93.8653C169.426 94.7794 169.227 95.6465 168.977 96.4669C169.109 96.5137 169.258 96.5489 169.422 96.5723C169.586 96.5958 169.75 96.6075 169.914 96.6075C170.086 96.6075 170.25 96.5997 170.406 96.584C170.563 96.5684 170.703 96.5528 170.828 96.5372C170.969 96.5137 171.106 96.4903 171.238 96.4669C170.91 96.7169 170.606 96.9317 170.324 97.1114C170.051 97.2911 169.766 97.4434 169.469 97.5684C169.18 97.6934 168.859 97.7833 168.508 97.838C168.156 97.9005 167.738 97.9317 167.254 97.9317C167.473 97.7208 167.66 97.3731 167.816 96.8887C167.981 96.3965 168.117 95.8145 168.227 95.1426C168.344 94.463 168.441 93.713 168.52 92.8926C168.598 92.0723 168.664 91.2325 168.719 90.3731C168.781 89.5059 168.828 88.6387 168.859 87.7715C168.898 86.9044 168.938 86.084 168.977 85.3106C169.016 84.5294 169.055 83.8184 169.094 83.1778C169.133 82.5294 169.184 81.9981 169.246 81.584L170.945 79.709C170.883 79.834 170.852 79.9747 170.852 80.1309C170.852 80.2872 170.867 80.4356 170.898 80.5762C170.93 80.7403 170.977 80.9083 171.039 81.0801C171.078 81.1817 171.184 81.4044 171.356 81.7481C171.527 82.0919 171.742 82.5176 172 83.0255C172.258 83.5255 172.551 84.0958 172.879 84.7364C173.215 85.3692 173.563 86.0333 173.922 86.7286C174.281 87.4161 174.645 88.1153 175.012 88.8262C175.379 89.5294 175.731 90.2051 176.066 90.8536C176.402 91.502 176.711 92.1075 176.992 92.67C177.273 93.2247 177.508 93.6973 177.695 94.088C178.359 93.0567 179.031 92.0137 179.711 90.959C180.398 89.9044 181.055 88.8536 181.68 87.8067C182.313 86.7598 182.898 85.7208 183.438 84.6895C183.984 83.6505 184.453 82.6309 184.844 81.6309L187.293 79.709C187.246 81.1544 187.234 82.5411 187.258 83.8692C187.281 85.1895 187.316 86.4786 187.363 87.7364C187.418 88.9942 187.469 90.2286 187.516 91.4395C187.563 92.6505 187.586 93.8614 187.586 95.0723C187.586 95.4239 187.563 95.713 187.516 95.9395C187.477 96.1583 187.402 96.3106 187.293 96.3965C187.652 96.4434 188.02 96.4669 188.395 96.4669C188.707 96.4669 189 96.4512 189.273 96.42C189.555 96.3809 189.789 96.3223 189.977 96.2442ZM194.758 96.42C194.344 96.6544 193.945 96.8497 193.563 97.0059C193.188 97.1622 192.836 97.2872 192.508 97.3809C192.18 97.4747 191.883 97.5411 191.617 97.5801C191.359 97.6192 191.137 97.6387 190.949 97.6387H189.191L190.469 96.9239C190.602 96.752 190.731 96.5801 190.856 96.4083C190.981 96.2364 191.086 96.0762 191.172 95.9278C191.273 95.7637 191.367 95.5997 191.453 95.4356C191.695 94.9434 192.055 94.1465 192.531 93.045C192.727 92.5762 192.957 92.0176 193.223 91.3692C193.496 90.7208 193.809 89.9669 194.16 89.1075C194.512 88.2481 194.902 87.2715 195.332 86.1778C195.762 85.084 196.242 83.8575 196.773 82.4981L198.813 80.6231L203.406 96.1973C203.734 96.2833 204.047 96.338 204.344 96.3614C204.648 96.3848 204.934 96.3965 205.199 96.3965C205.34 96.3965 205.469 96.3965 205.586 96.3965C205.703 96.3887 205.805 96.3809 205.891 96.3731C205.984 96.3653 206.074 96.3536 206.16 96.338C205.707 96.5567 205.313 96.7481 204.977 96.9122C204.641 97.0684 204.34 97.2012 204.074 97.3106C203.816 97.42 203.574 97.502 203.348 97.5567C203.129 97.6114 202.906 97.6387 202.68 97.6387H200.805L201.414 97.252L199.539 91.0411C199.313 91.1036 199.051 91.1661 198.754 91.2286C198.457 91.2833 198.102 91.334 197.688 91.3809C197.281 91.4278 196.805 91.4708 196.258 91.5098C195.719 91.5489 195.094 91.584 194.383 91.6153C194.055 92.3106 193.754 92.9278 193.481 93.4669C193.207 94.0059 192.961 94.4747 192.742 94.8731C192.523 95.2715 192.328 95.6075 192.156 95.8809C191.992 96.1544 191.852 96.3731 191.734 96.5372C191.867 96.5606 192.016 96.5801 192.18 96.5958C192.344 96.6036 192.508 96.6075 192.672 96.6075C192.922 96.6075 193.168 96.5997 193.41 96.584C193.66 96.5606 193.887 96.5372 194.09 96.5137C194.324 96.4825 194.547 96.4512 194.758 96.42ZM196.398 90.2208C197.453 90.2208 198.41 90.1973 199.27 90.1505L197.477 84.1973C196.992 85.4395 196.547 86.5489 196.141 87.5255C195.742 88.502 195.363 89.4005 195.004 90.2208H196.398ZM226.621 80.2833C226.152 80.6114 225.738 80.8692 225.379 81.0567C225.02 81.2442 224.668 81.3887 224.324 81.4903C223.926 82.1231 223.488 82.7247 223.012 83.295C222.543 83.8575 222.051 84.4044 221.535 84.9356C221.027 85.4669 220.508 85.9864 219.977 86.4942C219.453 86.9942 218.941 87.4942 218.441 87.9942C218.77 88.463 219.145 88.9864 219.566 89.5645C219.988 90.1426 220.441 90.7247 220.926 91.3106C221.418 91.8965 221.934 92.4708 222.473 93.0333C223.02 93.588 223.574 94.0801 224.137 94.5098C224.707 94.9395 225.285 95.2872 225.871 95.5528C226.465 95.8106 227.051 95.9395 227.629 95.9395C227.832 95.9395 228.047 95.9161 228.273 95.8692C228.5 95.8223 228.734 95.7403 228.977 95.6231C228.508 96.1309 228.094 96.5294 227.734 96.8184C227.383 97.0997 227.086 97.3067 226.844 97.4395C226.563 97.6036 226.32 97.7012 226.117 97.7325C225.867 97.7559 225.563 97.6973 225.203 97.5567C224.844 97.4161 224.453 97.2208 224.031 96.9708C223.609 96.713 223.172 96.4122 222.719 96.0684C222.266 95.7247 221.824 95.3614 221.395 94.9786C220.918 94.5333 220.41 94.0176 219.871 93.4317C219.41 92.9317 218.887 92.3262 218.301 91.6153C217.723 90.8965 217.129 90.0801 216.52 89.1661L217.527 87.9005C217.762 87.7051 218.039 87.463 218.359 87.1739C218.68 86.877 219.016 86.5567 219.367 86.213C219.719 85.8614 220.074 85.4903 220.434 85.0997C220.801 84.709 221.145 84.3184 221.465 83.9278C221.785 83.5294 222.07 83.1387 222.32 82.7559C222.57 82.3731 222.766 82.0137 222.906 81.6778C222.68 81.7012 222.363 81.7325 221.957 81.7715C221.551 81.8106 221.09 81.8692 220.574 81.9473C220.996 81.6036 221.375 81.3419 221.711 81.1622C222.047 80.9825 222.336 80.8497 222.578 80.7637C222.859 80.67 223.113 80.6153 223.34 80.5997C223.613 80.6075 223.914 80.6036 224.242 80.588C224.57 80.5723 224.887 80.5528 225.191 80.5294C225.504 80.4981 225.785 80.463 226.035 80.4239C226.293 80.377 226.488 80.3301 226.621 80.2833ZM218.535 96.127C218.113 96.4083 217.766 96.6505 217.492 96.8536C217.219 97.0567 216.969 97.2247 216.742 97.3575C216.523 97.4825 216.309 97.5762 216.098 97.6387C215.895 97.7012 215.652 97.7325 215.371 97.7325C214.996 97.7325 214.676 97.7169 214.41 97.6856C214.145 97.6544 213.879 97.6387 213.613 97.6387C213.481 97.6387 213.344 97.6426 213.203 97.6505C213.07 97.6661 212.922 97.6934 212.758 97.7325C212.977 97.545 213.176 97.3419 213.356 97.1231C213.535 96.9044 213.688 96.6348 213.813 96.3145C213.945 95.9942 214.047 95.6114 214.117 95.1661C214.188 94.713 214.223 94.17 214.223 93.5372V81.7012C213.981 81.7247 213.688 81.7559 213.344 81.795C213 81.834 212.609 81.8848 212.172 81.9473C212.594 81.6036 212.973 81.3419 213.309 81.1622C213.652 80.9825 213.945 80.8497 214.188 80.7637C214.469 80.67 214.719 80.6153 214.938 80.5997C215.211 80.6075 215.512 80.6036 215.84 80.588C216.176 80.5723 216.496 80.5528 216.801 80.5294C217.113 80.4981 217.398 80.463 217.656 80.4239C217.914 80.377 218.106 80.3301 218.231 80.2833C217.863 80.5255 217.531 80.7325 217.234 80.9044C216.945 81.0684 216.668 81.2051 216.402 81.3145C216.363 82.7286 216.328 83.9942 216.297 85.1114C216.273 86.2286 216.25 87.2208 216.227 88.088C216.211 88.9473 216.195 89.6934 216.18 90.3262C216.172 90.9512 216.164 91.4864 216.156 91.9317C216.133 92.9708 216.125 93.6817 216.133 94.0645C216.125 94.3536 216.086 94.6387 216.016 94.92C215.953 95.17 215.859 95.4356 215.734 95.7169C215.609 95.9903 215.43 96.2403 215.195 96.4669C215.344 96.4825 215.488 96.4903 215.629 96.4903C215.77 96.4903 215.906 96.4903 216.039 96.4903C216.438 96.4903 216.789 96.4747 217.094 96.4434C217.406 96.4044 217.668 96.3614 217.879 96.3145C218.129 96.2598 218.348 96.1973 218.535 96.127ZM239.981 94.5919C239.91 94.7012 239.813 94.834 239.688 94.9903C239.563 95.1387 239.438 95.2872 239.313 95.4356C239.172 95.6075 239.02 95.7833 238.856 95.963C238.652 96.213 238.434 96.4551 238.199 96.6895C237.965 96.9239 237.731 97.1348 237.496 97.3223C237.27 97.502 237.047 97.6465 236.828 97.7559C236.609 97.8653 236.414 97.9161 236.242 97.9083C235.914 97.8926 235.688 97.6934 235.563 97.3106C235.438 96.92 235.375 96.3575 235.375 95.6231C235.375 95.2325 235.387 94.8106 235.41 94.3575C235.434 93.9044 235.469 93.3965 235.516 92.834C235.344 93.1075 235.18 93.3575 235.023 93.584C234.867 93.8106 234.727 94.0098 234.602 94.1817C234.461 94.3848 234.32 94.5684 234.18 94.7325C233.766 95.2403 233.363 95.6895 232.973 96.0801C232.59 96.4708 232.234 96.7989 231.906 97.0645C231.586 97.3301 231.301 97.5333 231.051 97.6739C230.809 97.8145 230.617 97.8926 230.477 97.9083C230.336 97.9239 230.164 97.877 229.961 97.7676C229.766 97.6583 229.578 97.4473 229.398 97.1348C229.219 96.8223 229.063 96.3848 228.93 95.8223C228.805 95.2598 228.746 94.5294 228.754 93.6309C228.762 92.7325 228.856 91.9434 229.035 91.2637C229.223 90.5762 229.461 89.9786 229.75 89.4708C230.047 88.9551 230.375 88.5137 230.734 88.1465C231.094 87.7715 231.449 87.4473 231.801 87.1739C232.527 86.6192 233.223 86.1778 233.887 85.8497C234.559 85.5137 235.215 85.338 235.856 85.3223C236.066 85.3145 236.273 85.3184 236.477 85.334C236.656 85.3497 236.848 85.377 237.051 85.4161C237.262 85.4473 237.461 85.4981 237.648 85.5684L237.988 85.2989C237.941 85.5176 237.891 85.8145 237.836 86.1895C237.789 86.5645 237.742 86.9864 237.695 87.4551C237.648 87.9239 237.602 88.4239 237.555 88.9551C237.508 89.4864 237.465 90.0215 237.426 90.5606C237.395 91.0919 237.363 91.6114 237.332 92.1192C237.301 92.6192 237.273 93.0762 237.25 93.4903C237.234 93.9044 237.223 94.2559 237.215 94.545C237.215 94.834 237.219 95.0333 237.227 95.1426C237.266 95.588 237.367 95.8926 237.531 96.0567C237.703 96.2208 237.938 96.2051 238.234 96.0098C238.352 95.9161 238.496 95.7676 238.668 95.5645C238.816 95.3926 238.996 95.1583 239.207 94.8614C239.426 94.5567 239.684 94.1622 239.981 93.6778V94.5919ZM235.973 87.127C235.231 87.0333 234.621 86.9864 234.145 86.9864C233.637 86.9864 233.195 87.0684 232.82 87.2325C232.445 87.3965 232.125 87.6192 231.859 87.9005C231.594 88.1739 231.375 88.4942 231.203 88.8614C231.031 89.2208 230.895 89.6036 230.793 90.0098C230.699 90.4161 230.633 90.8301 230.594 91.252C230.563 91.6739 230.547 92.0762 230.547 92.459C230.547 92.5919 230.555 92.7715 230.57 92.9981C230.586 93.2247 230.613 93.4669 230.652 93.7247C230.699 93.9825 230.754 94.2442 230.816 94.5098C230.887 94.7755 230.973 95.0176 231.074 95.2364C231.184 95.4473 231.309 95.6231 231.449 95.7637C231.59 95.8965 231.754 95.963 231.941 95.963C232.145 95.963 232.391 95.8536 232.68 95.6348C232.977 95.4083 233.332 95.0294 233.746 94.4981C233.988 94.17 234.231 93.7755 234.473 93.3145C234.676 92.9239 234.891 92.4434 235.117 91.8731C235.352 91.3028 235.559 90.6387 235.738 89.8809L235.973 87.127ZM249.32 96.2676L247.375 97.9786C247.523 96.3692 247.641 95.0215 247.727 93.9356C247.813 92.8497 247.879 91.9786 247.926 91.3223C247.981 90.5489 248.016 89.9434 248.031 89.5059C248.063 88.9981 248.047 88.588 247.984 88.2755C247.922 87.9551 247.824 87.709 247.691 87.5372C247.566 87.3575 247.418 87.2364 247.246 87.1739C247.082 87.1114 246.918 87.0801 246.754 87.0801C246.582 87.0801 246.426 87.1114 246.285 87.1739C246.152 87.2364 246.023 87.334 245.898 87.4669C245.773 87.5919 245.648 87.752 245.523 87.9473C245.398 88.1348 245.266 88.3575 245.125 88.6153C245.008 88.8419 244.879 89.1348 244.738 89.4942C244.621 89.7989 244.484 90.1895 244.328 90.6661C244.172 91.1426 244.004 91.7247 243.824 92.4122V92.6231C243.809 92.9981 243.785 93.3965 243.754 93.8184C243.731 94.1778 243.703 94.584 243.672 95.0372C243.641 95.4903 243.606 95.9512 243.566 96.42L241.715 98.0489C241.801 96.1505 241.875 94.584 241.938 93.3497C242.008 92.1075 242.063 91.127 242.102 90.4083C242.148 89.5645 242.188 88.92 242.219 88.4747C242.242 87.9512 242.172 87.5801 242.008 87.3614C241.844 87.1426 241.641 87.0333 241.398 87.0333C241.211 87.0333 241.008 87.0919 240.789 87.209C240.578 87.3262 240.375 87.4747 240.18 87.6544C240.375 87.4356 240.59 87.2012 240.824 86.9512C241.066 86.7012 241.32 86.4708 241.586 86.2598C241.852 86.0489 242.121 85.8731 242.395 85.7325C242.676 85.5919 242.953 85.5215 243.227 85.5215C243.398 85.5215 243.543 85.5684 243.66 85.6622C243.785 85.7481 243.879 85.8926 243.941 86.0958C243.996 86.2364 244.031 86.4434 244.047 86.7169C244.063 86.9903 244.07 87.3028 244.07 87.6544C244.07 87.8809 244.066 88.1231 244.059 88.3809C244.051 88.6387 244.039 88.9005 244.023 89.1661C244.188 88.8926 244.348 88.6426 244.504 88.4161C244.66 88.1895 244.801 87.9981 244.926 87.8419C245.066 87.6544 245.203 87.4864 245.336 87.338C245.656 87.002 245.988 86.6973 246.332 86.4239C246.684 86.1426 247.023 85.92 247.352 85.7559C247.688 85.584 248.004 85.4786 248.301 85.4395C248.598 85.4005 248.859 85.4512 249.086 85.5919C249.242 85.6856 249.375 85.795 249.484 85.92C249.594 86.045 249.68 86.1934 249.742 86.3653C249.813 86.5372 249.863 86.7442 249.895 86.9864C249.926 87.2208 249.941 87.4981 249.941 87.8184C249.941 88.0606 249.941 88.3028 249.941 88.545C249.941 88.7794 249.934 89.0176 249.918 89.2598C250.098 89.002 250.266 88.7637 250.422 88.545C250.586 88.3262 250.734 88.1348 250.867 87.9708C251.016 87.7755 251.156 87.5997 251.289 87.4434C251.586 87.1075 251.891 86.8106 252.203 86.5528C252.523 86.295 252.832 86.084 253.129 85.92C253.434 85.7559 253.715 85.6426 253.973 85.5801C254.231 85.5098 254.449 85.4981 254.629 85.545C254.996 85.6387 255.242 85.9122 255.367 86.3653C255.5 86.8106 255.566 87.4161 255.566 88.1817C255.566 88.7676 255.547 89.3419 255.508 89.9044C255.469 90.4669 255.426 91.0215 255.379 91.5684C255.34 92.1075 255.301 92.6465 255.262 93.1856C255.223 93.7169 255.203 94.2481 255.203 94.7794C255.203 95.1465 255.231 95.4395 255.285 95.6583C255.348 95.8692 255.465 95.9942 255.637 96.0333C255.809 96.0489 256 96.002 256.211 95.8926C256.391 95.7989 256.606 95.6387 256.856 95.4122C257.106 95.1778 257.379 94.8301 257.676 94.3692L257.582 95.0958C257.371 95.3301 257.125 95.6114 256.844 95.9395C256.57 96.2676 256.281 96.5801 255.977 96.877C255.68 97.1661 255.375 97.4083 255.063 97.6036C254.758 97.7989 254.469 97.8809 254.195 97.8497C253.898 97.8106 253.656 97.6426 253.469 97.3458C253.281 97.0411 253.188 96.5645 253.188 95.9161C253.188 95.2598 253.211 94.6114 253.258 93.9708C253.313 93.3223 253.363 92.6817 253.41 92.0489C253.465 91.4083 253.512 90.7715 253.551 90.1387C253.59 89.4981 253.598 88.8614 253.574 88.2286C253.559 87.8536 253.461 87.584 253.281 87.42C253.109 87.2559 252.91 87.1739 252.684 87.1739C252.387 87.1739 252.113 87.2872 251.863 87.5137C251.746 87.6309 251.606 87.8028 251.441 88.0294C251.277 88.2481 251.102 88.5372 250.914 88.8965C250.734 89.2559 250.543 89.6895 250.34 90.1973C250.145 90.6973 249.949 91.2833 249.754 91.9551C249.691 92.6895 249.617 93.4161 249.531 94.1348C249.453 94.8458 249.383 95.5567 249.32 96.2676ZM271.387 94.6153C271.012 94.9434 270.703 95.2208 270.461 95.4473C270.219 95.6661 270.02 95.8419 269.863 95.9747C269.684 96.1309 269.543 96.2598 269.441 96.3614C269.324 96.4786 269.164 96.627 268.961 96.8067C268.766 96.9786 268.551 97.1465 268.316 97.3106C268.09 97.4747 267.856 97.6114 267.613 97.7208C267.379 97.838 267.164 97.8887 266.969 97.8731C266.648 97.8575 266.414 97.5762 266.266 97.0294C266.125 96.4747 266.055 95.7247 266.055 94.7794V93.6544C265.781 94.0215 265.52 94.3536 265.27 94.6505C265.027 94.9395 264.813 95.1856 264.625 95.3887C264.406 95.6309 264.203 95.8458 264.016 96.0333C263.625 96.4161 263.262 96.7364 262.926 96.9942C262.59 97.2442 262.281 97.4395 262 97.5801C261.719 97.7208 261.469 97.8106 261.25 97.8497C261.031 97.8965 260.84 97.9044 260.676 97.8731C260.52 97.8419 260.375 97.7676 260.242 97.6505C260.109 97.5333 259.996 97.3497 259.902 97.0997C259.809 96.8497 259.734 96.5255 259.68 96.127C259.633 95.7208 259.613 95.2169 259.621 94.6153C259.629 94.0137 259.645 93.4161 259.668 92.8223C259.699 92.2208 259.727 91.6505 259.75 91.1114C259.781 90.5723 259.813 90.0801 259.844 89.6348C259.883 89.1817 259.914 88.8028 259.938 88.4981C259.961 88.1075 259.918 87.795 259.809 87.5606C259.707 87.3184 259.523 87.1973 259.258 87.1973C259.102 87.1973 258.926 87.2442 258.731 87.338C258.535 87.4239 258.313 87.5684 258.063 87.7715C258.25 87.5919 258.469 87.377 258.719 87.127C258.969 86.8692 259.231 86.6231 259.504 86.3887C259.785 86.1544 260.066 85.9551 260.348 85.7911C260.629 85.627 260.891 85.545 261.133 85.545C261.32 85.545 261.461 85.5958 261.555 85.6973C261.656 85.7911 261.727 85.9083 261.766 86.0489C261.813 86.1895 261.836 86.3419 261.836 86.5059C261.844 86.6622 261.848 86.7989 261.848 86.9161C261.848 87.4786 261.828 88.0372 261.789 88.5919C261.75 89.1387 261.707 89.6856 261.66 90.2325C261.613 90.7715 261.57 91.3106 261.531 91.8497C261.492 92.3887 261.473 92.9278 261.473 93.4669C261.473 93.8419 261.488 94.2051 261.52 94.5567C261.559 94.9005 261.625 95.2012 261.719 95.459C261.813 95.7169 261.938 95.92 262.094 96.0684C262.258 96.209 262.465 96.2676 262.715 96.2442C263.043 96.213 263.367 96.0762 263.688 95.834C264.016 95.5919 264.324 95.2794 264.613 94.8965C264.902 94.5059 265.164 94.0645 265.398 93.5723C265.633 93.0801 265.82 92.5723 265.961 92.0489C265.977 91.9864 265.996 91.9122 266.02 91.8262C266.035 91.7559 266.055 91.6778 266.078 91.5919C266.109 91.5059 266.141 91.4083 266.172 91.2989C266.219 90.5411 266.281 89.795 266.359 89.0606C266.445 88.3262 266.543 87.5919 266.652 86.8575L268.938 85.2286C268.648 86.6583 268.418 88.0294 268.246 89.3419C268.082 90.6544 268 91.963 268 93.2676C268 93.8848 268.027 94.3848 268.082 94.7676C268.145 95.1505 268.227 95.4434 268.328 95.6465C268.438 95.8497 268.566 95.9747 268.715 96.0215C268.863 96.0684 269.023 96.0645 269.195 96.0098C269.352 95.9395 269.535 95.8067 269.746 95.6114C269.926 95.4473 270.152 95.209 270.426 94.8965C270.699 94.584 271.02 94.1622 271.387 93.6309V94.6153ZM258.063 87.7715L257.992 87.8184L258.063 87.7715ZM283.434 80.2833C283.066 80.5255 282.734 80.7325 282.438 80.9044C282.148 81.0684 281.871 81.2051 281.606 81.3145C281.566 82.7286 281.531 83.9942 281.5 85.1114C281.477 86.2286 281.453 87.2208 281.43 88.088C281.414 88.9473 281.398 89.6934 281.383 90.3262C281.375 90.9512 281.367 91.4864 281.359 91.9317C281.336 92.9708 281.328 93.6817 281.336 94.0645C281.328 94.3536 281.297 94.6309 281.242 94.8965C281.195 95.1231 281.121 95.3653 281.02 95.6231C280.918 95.8731 280.777 96.088 280.598 96.2676C281.066 96.2833 281.504 96.2911 281.91 96.2911C282.324 96.2911 282.719 96.2911 283.094 96.2911C284.164 96.2911 285.047 96.2755 285.742 96.2442C286.438 96.213 286.992 96.1778 287.406 96.1387C287.82 96.0919 288.113 96.0528 288.285 96.0215C288.457 95.9825 288.559 95.9551 288.59 95.9395C288.176 96.2208 287.832 96.463 287.559 96.6661C287.285 96.8692 287.039 97.0372 286.82 97.17C286.609 97.295 286.398 97.3887 286.188 97.4512C285.984 97.5137 285.746 97.545 285.473 97.545H283.668C283.16 97.545 282.609 97.5489 282.016 97.5567C281.422 97.5567 280.856 97.5645 280.316 97.5801C279.777 97.588 279.293 97.6075 278.863 97.6387C278.441 97.6622 278.141 97.6934 277.961 97.7325C278.18 97.545 278.379 97.3419 278.559 97.1231C278.738 96.9044 278.891 96.6348 279.016 96.3145C279.148 95.9942 279.25 95.6114 279.32 95.1661C279.391 94.713 279.426 94.17 279.426 93.5372V81.7012C279.184 81.7247 278.891 81.7559 278.547 81.795C278.203 81.834 277.813 81.8848 277.375 81.9473C277.797 81.6036 278.176 81.3419 278.512 81.1622C278.856 80.9825 279.148 80.8497 279.391 80.7637C279.672 80.67 279.922 80.6153 280.141 80.5997C280.414 80.6075 280.715 80.6036 281.043 80.588C281.379 80.5723 281.699 80.5528 282.004 80.5294C282.316 80.4981 282.602 80.463 282.859 80.4239C283.117 80.377 283.309 80.3301 283.434 80.2833ZM288.59 95.9395V95.9278C288.598 95.92 288.606 95.9161 288.613 95.9161L288.59 95.9395ZM295.586 94.2286C295.172 94.6973 294.789 95.1114 294.438 95.4708C294.094 95.8223 293.789 96.1192 293.523 96.3614C293.211 96.6426 292.93 96.8848 292.68 97.088C291.992 97.6348 291.395 97.9083 290.887 97.9083C290.598 97.9083 290.348 97.8301 290.137 97.6739C289.934 97.5255 289.758 97.3301 289.609 97.088C289.461 96.8458 289.34 96.5723 289.246 96.2676C289.152 95.963 289.078 95.6583 289.023 95.3536C288.977 95.0411 288.941 94.7442 288.918 94.463C288.902 94.1817 288.895 93.9434 288.895 93.7481C288.895 93.2247 288.953 92.6583 289.07 92.0489C289.195 91.4395 289.371 90.834 289.598 90.2325C289.832 89.6231 290.117 89.0411 290.453 88.4864C290.789 87.9239 291.172 87.4278 291.602 86.9981C292.039 86.5606 292.516 86.213 293.031 85.9551C293.555 85.6973 294.117 85.5684 294.719 85.5684C294.883 85.5684 295.02 85.5997 295.129 85.6622C295.238 85.7169 295.328 85.795 295.398 85.8965C295.469 85.9981 295.516 86.1114 295.539 86.2364C295.57 86.3614 295.586 86.4903 295.586 86.6231C295.586 86.9669 295.508 87.3106 295.352 87.6544C295.195 87.9981 294.984 88.338 294.719 88.6739C294.461 89.002 294.164 89.3262 293.828 89.6465C293.492 89.959 293.141 90.2598 292.773 90.5489C292.414 90.8301 292.055 91.0958 291.695 91.3458C291.336 91.5958 291.008 91.8223 290.711 92.0255V92.2833C290.711 92.4786 290.719 92.7169 290.734 92.9981C290.758 93.2715 290.793 93.5606 290.84 93.8653C290.895 94.1622 290.965 94.459 291.051 94.7559C291.137 95.0528 291.246 95.3184 291.379 95.5528C291.512 95.7872 291.668 95.9786 291.848 96.127C292.035 96.2676 292.25 96.338 292.492 96.338C292.602 96.338 292.715 96.3223 292.832 96.2911C292.949 96.252 293.066 96.1895 293.184 96.1036C293.387 95.9395 293.617 95.713 293.875 95.4239C294.094 95.1739 294.348 94.8497 294.637 94.4512C294.926 94.0528 295.242 93.5489 295.586 92.9395V94.2286ZM293.406 87.3145C293.313 87.2051 293.191 87.1348 293.043 87.1036C292.895 87.0723 292.734 87.0801 292.563 87.127C292.398 87.1739 292.234 87.2637 292.07 87.3965C291.914 87.5294 291.781 87.7051 291.672 87.9239C291.516 88.2364 291.344 88.6856 291.156 89.2715C290.969 89.8497 290.836 90.5176 290.758 91.2755C291.008 91.127 291.266 90.9551 291.531 90.7598C291.797 90.5645 292.051 90.3575 292.293 90.1387C292.543 89.92 292.766 89.6934 292.961 89.459C293.164 89.2169 293.32 88.9747 293.43 88.7325C293.547 88.4825 293.609 88.2403 293.617 88.0059C293.625 87.7637 293.555 87.5333 293.406 87.3145ZM298.727 98.0255C298.531 98.0255 298.332 98.0137 298.129 97.9903C297.926 97.9747 297.711 97.9473 297.484 97.9083C297.586 96.338 297.695 94.8106 297.813 93.3262C297.93 91.8419 298.035 90.3848 298.129 88.9551C298.231 87.5255 298.313 86.1192 298.375 84.7364C298.438 83.3536 298.469 81.9747 298.469 80.5997C298.469 79.7012 298.414 79.0215 298.305 78.5606C298.195 78.0919 298.016 77.834 297.766 77.7872C297.633 77.7637 297.496 77.7598 297.356 77.7755C297.231 77.7911 297.094 77.8301 296.945 77.8926C296.797 77.9473 296.648 78.0411 296.5 78.1739C296.852 77.8223 297.148 77.5294 297.391 77.295C297.641 77.0606 297.844 76.8731 298 76.7325C298.188 76.5684 298.344 76.4395 298.469 76.3458C298.578 76.2598 298.691 76.2012 298.809 76.17C298.934 76.1309 299.051 76.1114 299.16 76.1114C299.356 76.1114 299.531 76.1778 299.688 76.3106C299.852 76.4356 299.973 76.6505 300.051 76.9551C300.082 77.0723 300.106 77.2325 300.121 77.4356C300.145 77.6309 300.16 77.8614 300.168 78.127C300.184 78.3926 300.195 78.6895 300.203 79.0176C300.211 79.338 300.215 79.6739 300.215 80.0255C300.215 81.6426 300.168 83.2286 300.074 84.7833C299.988 86.3301 299.883 87.8731 299.758 89.4122C299.977 89.0528 300.191 88.7247 300.402 88.4278C300.621 88.1309 300.816 87.8809 300.988 87.6778C301.191 87.4356 301.383 87.2208 301.563 87.0333C302.117 86.4942 302.641 86.0997 303.133 85.8497C303.625 85.5997 304.059 85.4747 304.434 85.4747C304.699 85.4747 304.926 85.5489 305.113 85.6973C305.309 85.838 305.473 86.0215 305.606 86.2481C305.738 86.4747 305.848 86.7325 305.934 87.0215C306.02 87.3028 306.082 87.588 306.121 87.877C306.168 88.1661 306.199 88.4434 306.215 88.709C306.231 88.9669 306.238 89.1817 306.238 89.3536C306.238 90.0411 306.156 90.7325 305.992 91.4278C305.828 92.1231 305.59 92.7911 305.277 93.4317C304.965 94.0723 304.586 94.6739 304.141 95.2364C303.703 95.7911 303.203 96.2755 302.641 96.6895C302.086 97.1036 301.481 97.4278 300.824 97.6622C300.168 97.9044 299.469 98.0255 298.727 98.0255ZM299.16 96.1973C299.465 96.3145 299.746 96.3965 300.004 96.4434C300.262 96.4825 300.484 96.5098 300.672 96.5255C300.891 96.5411 301.09 96.5372 301.27 96.5137C301.949 96.3497 302.492 96.0762 302.898 95.6934C303.305 95.3106 303.613 94.8653 303.824 94.3575C304.035 93.8497 304.172 93.3067 304.234 92.7286C304.305 92.1426 304.34 91.5645 304.34 90.9942C304.34 90.8067 304.332 90.5801 304.316 90.3145C304.309 90.0411 304.285 89.7559 304.246 89.459C304.207 89.1544 304.152 88.8536 304.082 88.5567C304.012 88.2598 303.918 87.9942 303.801 87.7598C303.684 87.5255 303.539 87.334 303.367 87.1856C303.195 87.0372 302.992 86.963 302.758 86.963C302.602 86.963 302.449 86.9981 302.301 87.0684C302.152 87.1387 302.023 87.2286 301.914 87.338C301.664 87.5801 301.422 87.9005 301.188 88.2989C300.961 88.6973 300.742 89.1505 300.531 89.6583C300.328 90.1661 300.133 90.713 299.945 91.2989C299.766 91.877 299.598 92.4708 299.441 93.0801L299.16 96.1973ZM313.703 93.9942L313.445 94.9551C313.313 95.088 313.148 95.2559 312.953 95.459C312.766 95.6544 312.555 95.8653 312.32 96.0919C312.094 96.3106 311.856 96.5294 311.606 96.7481C311.356 96.9669 311.109 97.1622 310.867 97.334C310.625 97.5059 310.391 97.6387 310.164 97.7325C309.945 97.834 309.75 97.8731 309.578 97.8497C309.313 97.8106 309.121 97.6192 309.004 97.2755C308.895 96.9239 308.84 96.3575 308.84 95.5762C308.84 95.4356 308.844 95.209 308.852 94.8965C308.867 94.5762 308.883 94.2051 308.898 93.7833C308.922 93.3614 308.945 92.9005 308.969 92.4005C309 91.8926 309.031 91.3848 309.063 90.877C309.094 90.3614 309.125 89.8575 309.156 89.3653C309.195 88.8653 309.234 88.4083 309.273 87.9942C309.297 87.7208 309.242 87.5255 309.109 87.4083C308.977 87.2833 308.813 87.2208 308.617 87.2208C308.453 87.2208 308.281 87.2598 308.102 87.338C307.922 87.4161 307.758 87.5215 307.609 87.6544C307.922 87.3497 308.199 87.0958 308.441 86.8926C308.684 86.6817 308.891 86.5098 309.063 86.377C309.266 86.2286 309.438 86.1036 309.578 86.002C309.773 85.8848 309.961 85.8262 310.141 85.8262C310.328 85.8184 310.492 85.8614 310.633 85.9551C310.781 86.0489 310.895 86.1856 310.973 86.3653C311.059 86.545 311.098 86.7598 311.09 87.0098C311.082 87.1817 311.063 87.459 311.031 87.8419C311.008 88.2169 310.977 88.6465 310.938 89.1309C310.906 89.6153 310.867 90.127 310.82 90.6661C310.781 91.2051 310.742 91.7247 310.703 92.2247C310.672 92.7247 310.641 93.1778 310.609 93.584C310.586 93.9903 310.57 94.3028 310.563 94.5215C310.547 94.9669 310.594 95.3262 310.703 95.5997C310.82 95.8731 311.004 96.0098 311.254 96.0098C311.441 96.0098 311.656 95.9278 311.898 95.7637C312.148 95.5997 312.395 95.4083 312.637 95.1895C312.879 94.9708 313.094 94.7481 313.281 94.5215C313.477 94.295 313.617 94.1192 313.703 93.9942ZM311.711 76.709C311.727 77.0919 311.715 77.4356 311.676 77.7403C311.645 78.0372 311.606 78.2911 311.559 78.502C311.504 78.752 311.438 78.9708 311.359 79.1583C311.266 79.3458 311.121 79.5489 310.926 79.7676C310.762 79.9551 310.535 80.1739 310.246 80.4239C309.965 80.6661 309.598 80.9239 309.145 81.1973C309.293 80.9005 309.41 80.588 309.496 80.2598C309.582 79.9239 309.648 79.6153 309.695 79.334C309.75 79.0059 309.785 78.6817 309.801 78.3614L311.711 76.709ZM317.16 77.2598C317.176 77.4083 317.184 77.6036 317.184 77.8458C317.184 78.088 317.184 78.3731 317.184 78.7012C317.184 80.5137 317.141 82.2872 317.055 84.0215C316.977 85.7481 316.875 87.4708 316.75 89.1895C317.039 88.7364 317.359 88.2755 317.711 87.8067C318.07 87.338 318.449 86.9161 318.848 86.5411C319.246 86.1583 319.66 85.8497 320.09 85.6153C320.52 85.3731 320.957 85.252 321.402 85.252C321.77 85.252 322.074 85.3458 322.316 85.5333C322.559 85.7208 322.75 85.9551 322.891 86.2364C323.031 86.5176 323.129 86.8223 323.184 87.1505C323.246 87.4786 323.277 87.7833 323.277 88.0645C323.277 88.6583 323.254 89.2481 323.207 89.834C323.16 90.4122 323.109 90.9864 323.055 91.5567C323.008 92.127 322.961 92.6973 322.914 93.2676C322.867 93.8301 322.844 94.3926 322.844 94.9551C322.844 95.1114 322.852 95.2676 322.867 95.4239C322.883 95.5801 322.918 95.7247 322.973 95.8575C323.027 95.9825 323.102 96.088 323.195 96.1739C323.297 96.252 323.43 96.2911 323.594 96.2911C323.813 96.2911 324.035 96.2012 324.262 96.0215C324.496 95.834 324.711 95.6192 324.906 95.377C325.109 95.127 325.289 94.8809 325.445 94.6387C325.609 94.3887 325.734 94.1973 325.82 94.0645L325.563 95.1426C325.219 95.4786 324.934 95.752 324.707 95.963C324.488 96.1661 324.313 96.3301 324.18 96.4551C324.023 96.5958 323.898 96.7012 323.805 96.7715C323.711 96.8497 323.594 96.9551 323.453 97.088C323.313 97.2208 323.156 97.3497 322.984 97.4747C322.82 97.5997 322.645 97.7051 322.457 97.7911C322.277 97.8848 322.094 97.9317 321.906 97.9317C321.75 97.9317 321.621 97.9083 321.52 97.8614C321.418 97.8145 321.336 97.7325 321.273 97.6153C321.211 97.4981 321.164 97.3458 321.133 97.1583C321.109 96.963 321.098 96.7169 321.098 96.42C321.098 95.6856 321.117 94.9708 321.156 94.2755C321.203 93.5723 321.25 92.8809 321.297 92.2012C321.344 91.5215 321.383 90.8497 321.414 90.1856C321.445 89.5215 321.449 88.8614 321.426 88.2051C321.41 88.0176 321.363 87.8419 321.285 87.6778C321.207 87.5059 321.098 87.3575 320.957 87.2325C320.824 87.1075 320.664 87.0137 320.477 86.9512C320.289 86.8809 320.086 86.8575 319.867 86.8809C319.648 86.9044 319.434 86.9669 319.223 87.0684C319.02 87.17 318.816 87.3223 318.613 87.5255C318.418 87.7286 318.219 87.9903 318.016 88.3106C317.82 88.6309 317.621 89.0294 317.418 89.5059C317.332 89.7169 317.242 89.9512 317.148 90.209C317.063 90.4356 316.969 90.7012 316.867 91.0059C316.766 91.3028 316.664 91.6348 316.563 92.002L316.27 96.7247L314.395 98.1895C314.52 96.6817 314.641 95.209 314.758 93.7715C314.883 92.3262 314.992 90.9083 315.086 89.5176C315.18 88.1192 315.254 86.7403 315.309 85.3809C315.371 84.0137 315.402 82.6505 315.402 81.2911C315.402 80.8067 315.391 80.3614 315.367 79.9551C315.352 79.5489 315.324 79.1934 315.285 78.8887C315.254 78.5762 315.211 78.3184 315.156 78.1153C315.102 77.9122 315.035 77.7715 314.957 77.6934C314.84 77.6153 314.703 77.5762 314.547 77.5762C314.414 77.5762 314.246 77.6153 314.043 77.6934C313.848 77.7637 313.613 77.9161 313.34 78.1505C313.504 78.0098 313.707 77.8223 313.949 77.588C314.191 77.3536 314.445 77.127 314.711 76.9083C314.977 76.6817 315.242 76.4903 315.508 76.334C315.773 76.17 316.012 76.088 316.223 76.088C316.449 76.088 316.652 76.1778 316.832 76.3575C317.012 76.5372 317.121 76.838 317.16 77.2598ZM355.023 96.2442C354.836 96.4005 354.574 96.5762 354.238 96.7715C353.902 96.9669 353.508 97.1505 353.055 97.3223C352.609 97.4942 352.117 97.6387 351.578 97.7559C351.039 97.8731 350.477 97.9317 349.891 97.9317C349.992 97.7442 350.074 97.5762 350.137 97.4278C350.207 97.2715 350.262 97.1192 350.301 96.9708C350.348 96.8223 350.379 96.6739 350.395 96.5255C350.41 96.377 350.418 96.213 350.418 96.0333C350.418 95.8301 350.406 95.4786 350.383 94.9786C350.359 94.4708 350.332 93.877 350.301 93.1973C350.27 92.5176 350.234 91.7794 350.195 90.9825C350.156 90.1856 350.117 89.3965 350.078 88.6153C350.047 87.834 350.016 87.0919 349.984 86.3887C349.961 85.6856 349.945 85.084 349.938 84.584C349.523 85.3106 349.113 85.9825 348.707 86.5997C348.309 87.209 347.914 87.795 347.523 88.3575C347.141 88.92 346.766 89.4708 346.398 90.0098C346.039 90.5489 345.688 91.1075 345.344 91.6856C345.008 92.2637 344.688 92.877 344.383 93.5255C344.078 94.1661 343.793 94.8731 343.527 95.6465L341.488 97.9317C341.504 97.6583 341.453 97.3301 341.336 96.9473C341.219 96.5567 341.082 96.1817 340.926 95.8223C340.746 95.4005 340.543 94.9669 340.316 94.5215C340.051 94.0372 339.695 93.3731 339.25 92.5294C338.859 91.8184 338.348 90.8692 337.715 89.6817C337.082 88.4942 336.293 87.0176 335.348 85.252C335.293 86.2051 335.238 87.17 335.184 88.1465C335.137 89.1231 335.07 90.0919 334.984 91.0528C334.898 92.0059 334.777 92.9434 334.621 93.8653C334.473 94.7794 334.273 95.6465 334.023 96.4669C334.156 96.5137 334.305 96.5489 334.469 96.5723C334.633 96.5958 334.797 96.6075 334.961 96.6075C335.133 96.6075 335.297 96.5997 335.453 96.584C335.609 96.5684 335.75 96.5528 335.875 96.5372C336.016 96.5137 336.152 96.4903 336.285 96.4669C335.957 96.7169 335.652 96.9317 335.371 97.1114C335.098 97.2911 334.813 97.4434 334.516 97.5684C334.227 97.6934 333.906 97.7833 333.555 97.838C333.203 97.9005 332.785 97.9317 332.301 97.9317C332.52 97.7208 332.707 97.3731 332.863 96.8887C333.027 96.3965 333.164 95.8145 333.273 95.1426C333.391 94.463 333.488 93.713 333.566 92.8926C333.645 92.0723 333.711 91.2325 333.766 90.3731C333.828 89.5059 333.875 88.6387 333.906 87.7715C333.945 86.9044 333.984 86.084 334.023 85.3106C334.063 84.5294 334.102 83.8184 334.141 83.1778C334.18 82.5294 334.231 81.9981 334.293 81.584L335.992 79.709C335.93 79.834 335.898 79.9747 335.898 80.1309C335.898 80.2872 335.914 80.4356 335.945 80.5762C335.977 80.7403 336.023 80.9083 336.086 81.0801C336.125 81.1817 336.231 81.4044 336.402 81.7481C336.574 82.0919 336.789 82.5176 337.047 83.0255C337.305 83.5255 337.598 84.0958 337.926 84.7364C338.262 85.3692 338.609 86.0333 338.969 86.7286C339.328 87.4161 339.691 88.1153 340.059 88.8262C340.426 89.5294 340.777 90.2051 341.113 90.8536C341.449 91.502 341.758 92.1075 342.039 92.67C342.32 93.2247 342.555 93.6973 342.742 94.088C343.406 93.0567 344.078 92.0137 344.758 90.959C345.445 89.9044 346.102 88.8536 346.727 87.8067C347.359 86.7598 347.945 85.7208 348.484 84.6895C349.031 83.6505 349.5 82.6309 349.891 81.6309L352.34 79.709C352.293 81.1544 352.281 82.5411 352.305 83.8692C352.328 85.1895 352.363 86.4786 352.41 87.7364C352.465 88.9942 352.516 90.2286 352.563 91.4395C352.609 92.6505 352.633 93.8614 352.633 95.0723C352.633 95.4239 352.609 95.713 352.563 95.9395C352.523 96.1583 352.449 96.3106 352.34 96.3965C352.699 96.4434 353.066 96.4669 353.441 96.4669C353.754 96.4669 354.047 96.4512 354.32 96.42C354.602 96.3809 354.836 96.3223 355.023 96.2442ZM368.676 94.6153C368.301 94.9434 367.992 95.2208 367.75 95.4473C367.508 95.6661 367.309 95.8419 367.152 95.9747C366.973 96.1309 366.832 96.2598 366.731 96.3614C366.613 96.4786 366.453 96.627 366.25 96.8067C366.055 96.9786 365.84 97.1465 365.606 97.3106C365.379 97.4747 365.145 97.6114 364.902 97.7208C364.668 97.838 364.453 97.8887 364.258 97.8731C363.938 97.8575 363.703 97.5762 363.555 97.0294C363.414 96.4747 363.344 95.7247 363.344 94.7794V93.6544C363.07 94.0215 362.809 94.3536 362.559 94.6505C362.316 94.9395 362.102 95.1856 361.914 95.3887C361.695 95.6309 361.492 95.8458 361.305 96.0333C360.914 96.4161 360.551 96.7364 360.215 96.9942C359.879 97.2442 359.57 97.4395 359.289 97.5801C359.008 97.7208 358.758 97.8106 358.539 97.8497C358.32 97.8965 358.129 97.9044 357.965 97.8731C357.809 97.8419 357.664 97.7676 357.531 97.6505C357.398 97.5333 357.285 97.3497 357.191 97.0997C357.098 96.8497 357.023 96.5255 356.969 96.127C356.922 95.7208 356.902 95.2169 356.91 94.6153C356.918 94.0137 356.934 93.4161 356.957 92.8223C356.988 92.2208 357.016 91.6505 357.039 91.1114C357.07 90.5723 357.102 90.0801 357.133 89.6348C357.172 89.1817 357.203 88.8028 357.227 88.4981C357.25 88.1075 357.207 87.795 357.098 87.5606C356.996 87.3184 356.813 87.1973 356.547 87.1973C356.391 87.1973 356.215 87.2442 356.02 87.338C355.824 87.4239 355.602 87.5684 355.352 87.7715C355.539 87.5919 355.758 87.377 356.008 87.127C356.258 86.8692 356.52 86.6231 356.793 86.3887C357.074 86.1544 357.356 85.9551 357.637 85.7911C357.918 85.627 358.18 85.545 358.422 85.545C358.609 85.545 358.75 85.5958 358.844 85.6973C358.945 85.7911 359.016 85.9083 359.055 86.0489C359.102 86.1895 359.125 86.3419 359.125 86.5059C359.133 86.6622 359.137 86.7989 359.137 86.9161C359.137 87.4786 359.117 88.0372 359.078 88.5919C359.039 89.1387 358.996 89.6856 358.949 90.2325C358.902 90.7715 358.859 91.3106 358.82 91.8497C358.781 92.3887 358.762 92.9278 358.762 93.4669C358.762 93.8419 358.777 94.2051 358.809 94.5567C358.848 94.9005 358.914 95.2012 359.008 95.459C359.102 95.7169 359.227 95.92 359.383 96.0684C359.547 96.209 359.754 96.2676 360.004 96.2442C360.332 96.213 360.656 96.0762 360.977 95.834C361.305 95.5919 361.613 95.2794 361.902 94.8965C362.191 94.5059 362.453 94.0645 362.688 93.5723C362.922 93.0801 363.109 92.5723 363.25 92.0489C363.266 91.9864 363.285 91.9122 363.309 91.8262C363.324 91.7559 363.344 91.6778 363.367 91.5919C363.398 91.5059 363.43 91.4083 363.461 91.2989C363.508 90.5411 363.57 89.795 363.648 89.0606C363.734 88.3262 363.832 87.5919 363.941 86.8575L366.227 85.2286C365.938 86.6583 365.707 88.0294 365.535 89.3419C365.371 90.6544 365.289 91.963 365.289 93.2676C365.289 93.8848 365.316 94.3848 365.371 94.7676C365.434 95.1505 365.516 95.4434 365.617 95.6465C365.727 95.8497 365.856 95.9747 366.004 96.0215C366.152 96.0684 366.313 96.0645 366.484 96.0098C366.641 95.9395 366.824 95.8067 367.035 95.6114C367.215 95.4473 367.441 95.209 367.715 94.8965C367.988 94.584 368.309 94.1622 368.676 93.6309V94.6153ZM355.352 87.7715L355.281 87.8184L355.352 87.7715ZM380.453 93.8653L380.184 95.1426C379.762 95.502 379.41 95.7989 379.129 96.0333C378.856 96.2598 378.633 96.4434 378.461 96.584C378.258 96.7481 378.098 96.877 377.981 96.9708C377.848 97.0801 377.707 97.1934 377.559 97.3106C377.41 97.42 377.254 97.5176 377.09 97.6036C376.934 97.6895 376.773 97.7559 376.609 97.8028C376.453 97.8575 376.301 97.8731 376.152 97.8497C375.691 97.8028 375.461 96.8692 375.461 95.0489C375.461 94.2598 375.484 93.338 375.531 92.2833C375.305 92.6817 375.09 93.045 374.887 93.3731C374.691 93.6934 374.516 93.9669 374.359 94.1934C374.18 94.459 374.012 94.6973 373.856 94.9083C373.504 95.3536 373.16 95.7559 372.824 96.1153C372.488 96.4669 372.172 96.7715 371.875 97.0294C371.578 97.2872 371.309 97.4903 371.066 97.6387C370.832 97.7794 370.641 97.8575 370.492 97.8731C370.344 97.8887 370.18 97.8692 370 97.8145C369.82 97.7598 369.645 97.6387 369.473 97.4512C369.309 97.2559 369.16 96.9786 369.027 96.6192C368.902 96.2598 368.816 95.7833 368.77 95.1895C368.754 95.0723 368.746 94.9551 368.746 94.838C368.746 94.713 368.746 94.5919 368.746 94.4747C368.746 93.9044 368.789 93.3106 368.875 92.6934C368.969 92.0762 369.09 91.4903 369.238 90.9356C369.395 90.3731 369.574 89.8653 369.777 89.4122C369.988 88.9512 370.211 88.5958 370.445 88.3458C370.617 88.1583 370.832 87.959 371.09 87.7481C371.348 87.5372 371.625 87.3301 371.922 87.127C372.227 86.9161 372.539 86.7169 372.859 86.5294C373.18 86.334 373.484 86.1622 373.773 86.0137C374.063 85.8653 374.324 85.7442 374.559 85.6505C374.793 85.5567 374.981 85.4981 375.121 85.4747H375.356C375.434 85.4747 375.527 85.4747 375.637 85.4747C375.746 85.4747 375.871 85.4825 376.012 85.4981C376.066 84.795 376.117 84.1114 376.164 83.4473C376.219 82.7833 376.262 82.1583 376.293 81.5723C376.332 80.9786 376.363 80.4356 376.387 79.9434C376.41 79.4512 376.422 79.0294 376.422 78.6778C376.422 78.3653 376.395 78.1309 376.34 77.9747C376.293 77.8106 376.215 77.67 376.106 77.5528C376.035 77.4903 375.949 77.4512 375.848 77.4356C375.762 77.42 375.652 77.4278 375.52 77.459C375.387 77.4903 375.231 77.5606 375.051 77.67C375.449 77.3965 375.785 77.1661 376.059 76.9786C376.332 76.7911 376.559 76.6426 376.738 76.5333C376.941 76.4005 377.109 76.2989 377.242 76.2286C377.406 76.1348 377.566 76.088 377.723 76.088C377.887 76.0801 378.031 76.1348 378.156 76.252C378.281 76.3614 378.375 76.5372 378.438 76.7794C378.5 77.0215 378.516 77.3419 378.484 77.7403C378.461 77.9434 378.426 78.2989 378.379 78.8067C378.34 79.3067 378.289 79.9083 378.227 80.6114C378.164 81.3067 378.098 82.0723 378.027 82.9083C377.965 83.7442 377.898 84.5997 377.828 85.4747C377.758 86.3497 377.688 87.2169 377.617 88.0762C377.555 88.9278 377.5 89.7208 377.453 90.4551C377.406 91.1817 377.367 91.8223 377.336 92.377C377.305 92.9317 377.289 93.3419 377.289 93.6075C377.289 94.4122 377.344 95.0372 377.453 95.4825C377.563 95.9278 377.762 96.1505 378.051 96.1505C378.254 96.1505 378.512 96.0294 378.824 95.7872C379.051 95.6075 379.266 95.4122 379.469 95.2012C379.648 95.0215 379.828 94.8184 380.008 94.5919C380.188 94.3575 380.336 94.1153 380.453 93.8653ZM375.895 87.1505C375.434 87.0645 375.035 87.0098 374.699 86.9864C374.363 86.9551 374.082 86.9395 373.856 86.9395C373.418 86.9395 373.031 87.0489 372.695 87.2676C372.367 87.4786 372.078 87.7559 371.828 88.0997C371.578 88.4434 371.367 88.834 371.195 89.2715C371.031 89.709 370.898 90.1505 370.797 90.5958C370.695 91.0411 370.621 91.4708 370.574 91.8848C370.535 92.2911 370.516 92.6426 370.516 92.9395C370.516 93.0645 370.52 93.2286 370.527 93.4317C370.543 93.627 370.566 93.838 370.598 94.0645C370.637 94.2833 370.688 94.5059 370.75 94.7325C370.813 94.959 370.891 95.1661 370.984 95.3536C371.078 95.5333 371.191 95.6817 371.324 95.7989C371.457 95.9083 371.613 95.963 371.793 95.963C371.996 95.963 372.238 95.834 372.52 95.5762C372.809 95.3184 373.18 94.8926 373.633 94.2989C373.852 93.9942 374.078 93.6192 374.313 93.1739C374.516 92.7911 374.738 92.3067 374.981 91.7208C375.223 91.1348 375.465 90.4356 375.707 89.6231L375.895 87.1505ZM391.949 94.5919C391.879 94.7012 391.781 94.834 391.656 94.9903C391.531 95.1387 391.406 95.2872 391.281 95.4356C391.141 95.6075 390.988 95.7833 390.824 95.963C390.621 96.213 390.402 96.4551 390.168 96.6895C389.934 96.9239 389.699 97.1348 389.465 97.3223C389.238 97.502 389.016 97.6465 388.797 97.7559C388.578 97.8653 388.383 97.9161 388.211 97.9083C387.883 97.8926 387.656 97.6934 387.531 97.3106C387.406 96.92 387.344 96.3575 387.344 95.6231C387.344 95.2325 387.356 94.8106 387.379 94.3575C387.402 93.9044 387.438 93.3965 387.484 92.834C387.313 93.1075 387.148 93.3575 386.992 93.584C386.836 93.8106 386.695 94.0098 386.57 94.1817C386.43 94.3848 386.289 94.5684 386.148 94.7325C385.734 95.2403 385.332 95.6895 384.941 96.0801C384.559 96.4708 384.203 96.7989 383.875 97.0645C383.555 97.3301 383.27 97.5333 383.02 97.6739C382.777 97.8145 382.586 97.8926 382.445 97.9083C382.305 97.9239 382.133 97.877 381.93 97.7676C381.734 97.6583 381.547 97.4473 381.367 97.1348C381.188 96.8223 381.031 96.3848 380.898 95.8223C380.773 95.2598 380.715 94.5294 380.723 93.6309C380.731 92.7325 380.824 91.9434 381.004 91.2637C381.191 90.5762 381.43 89.9786 381.719 89.4708C382.016 88.9551 382.344 88.5137 382.703 88.1465C383.063 87.7715 383.418 87.4473 383.77 87.1739C384.496 86.6192 385.191 86.1778 385.856 85.8497C386.527 85.5137 387.184 85.338 387.824 85.3223C388.035 85.3145 388.242 85.3184 388.445 85.334C388.625 85.3497 388.816 85.377 389.02 85.4161C389.231 85.4473 389.43 85.4981 389.617 85.5684L389.957 85.2989C389.91 85.5176 389.859 85.8145 389.805 86.1895C389.758 86.5645 389.711 86.9864 389.664 87.4551C389.617 87.9239 389.57 88.4239 389.523 88.9551C389.477 89.4864 389.434 90.0215 389.395 90.5606C389.363 91.0919 389.332 91.6114 389.301 92.1192C389.27 92.6192 389.242 93.0762 389.219 93.4903C389.203 93.9044 389.191 94.2559 389.184 94.545C389.184 94.834 389.188 95.0333 389.195 95.1426C389.234 95.588 389.336 95.8926 389.5 96.0567C389.672 96.2208 389.906 96.2051 390.203 96.0098C390.32 95.9161 390.465 95.7676 390.637 95.5645C390.785 95.3926 390.965 95.1583 391.176 94.8614C391.395 94.5567 391.652 94.1622 391.949 93.6778V94.5919ZM387.941 87.127C387.199 87.0333 386.59 86.9864 386.113 86.9864C385.606 86.9864 385.164 87.0684 384.789 87.2325C384.414 87.3965 384.094 87.6192 383.828 87.9005C383.563 88.1739 383.344 88.4942 383.172 88.8614C383 89.2208 382.863 89.6036 382.762 90.0098C382.668 90.4161 382.602 90.8301 382.563 91.252C382.531 91.6739 382.516 92.0762 382.516 92.459C382.516 92.5919 382.523 92.7715 382.539 92.9981C382.555 93.2247 382.582 93.4669 382.621 93.7247C382.668 93.9825 382.723 94.2442 382.785 94.5098C382.856 94.7755 382.941 95.0176 383.043 95.2364C383.152 95.4473 383.277 95.6231 383.418 95.7637C383.559 95.8965 383.723 95.963 383.91 95.963C384.113 95.963 384.359 95.8536 384.648 95.6348C384.945 95.4083 385.301 95.0294 385.715 94.4981C385.957 94.17 386.199 93.7755 386.441 93.3145C386.645 92.9239 386.859 92.4434 387.086 91.8731C387.32 91.3028 387.527 90.6387 387.707 89.8809L387.941 87.127ZM395.676 77.2598C395.691 77.4083 395.699 77.6036 395.699 77.8458C395.699 78.088 395.699 78.3731 395.699 78.7012C395.699 80.5137 395.656 82.2872 395.57 84.0215C395.492 85.7481 395.391 87.4708 395.266 89.1895C395.555 88.7364 395.875 88.2755 396.227 87.8067C396.586 87.338 396.965 86.9161 397.363 86.5411C397.762 86.1583 398.176 85.8497 398.606 85.6153C399.035 85.3731 399.473 85.252 399.918 85.252C400.285 85.252 400.59 85.3458 400.832 85.5333C401.074 85.7208 401.266 85.9551 401.406 86.2364C401.547 86.5176 401.645 86.8223 401.699 87.1505C401.762 87.4786 401.793 87.7833 401.793 88.0645C401.793 88.6583 401.77 89.2481 401.723 89.834C401.676 90.4122 401.625 90.9864 401.57 91.5567C401.523 92.127 401.477 92.6973 401.43 93.2676C401.383 93.8301 401.359 94.3926 401.359 94.9551C401.359 95.1114 401.367 95.2676 401.383 95.4239C401.398 95.5801 401.434 95.7247 401.488 95.8575C401.543 95.9825 401.617 96.088 401.711 96.1739C401.813 96.252 401.945 96.2911 402.109 96.2911C402.328 96.2911 402.551 96.2012 402.777 96.0215C403.012 95.834 403.227 95.6192 403.422 95.377C403.625 95.127 403.805 94.8809 403.961 94.6387C404.125 94.3887 404.25 94.1973 404.336 94.0645L404.078 95.1426C403.734 95.4786 403.449 95.752 403.223 95.963C403.004 96.1661 402.828 96.3301 402.695 96.4551C402.539 96.5958 402.414 96.7012 402.32 96.7715C402.227 96.8497 402.109 96.9551 401.969 97.088C401.828 97.2208 401.672 97.3497 401.5 97.4747C401.336 97.5997 401.16 97.7051 400.973 97.7911C400.793 97.8848 400.609 97.9317 400.422 97.9317C400.266 97.9317 400.137 97.9083 400.035 97.8614C399.934 97.8145 399.852 97.7325 399.789 97.6153C399.727 97.4981 399.68 97.3458 399.648 97.1583C399.625 96.963 399.613 96.7169 399.613 96.42C399.613 95.6856 399.633 94.9708 399.672 94.2755C399.719 93.5723 399.766 92.8809 399.813 92.2012C399.859 91.5215 399.898 90.8497 399.93 90.1856C399.961 89.5215 399.965 88.8614 399.941 88.2051C399.926 88.0176 399.879 87.8419 399.801 87.6778C399.723 87.5059 399.613 87.3575 399.473 87.2325C399.34 87.1075 399.18 87.0137 398.992 86.9512C398.805 86.8809 398.602 86.8575 398.383 86.8809C398.164 86.9044 397.949 86.9669 397.738 87.0684C397.535 87.17 397.332 87.3223 397.129 87.5255C396.934 87.7286 396.734 87.9903 396.531 88.3106C396.336 88.6309 396.137 89.0294 395.934 89.5059C395.848 89.7169 395.758 89.9512 395.664 90.209C395.578 90.4356 395.484 90.7012 395.383 91.0059C395.281 91.3028 395.18 91.6348 395.078 92.002L394.785 96.7247L392.91 98.1895C393.035 96.6817 393.156 95.209 393.273 93.7715C393.398 92.3262 393.508 90.9083 393.602 89.5176C393.695 88.1192 393.77 86.7403 393.824 85.3809C393.887 84.0137 393.918 82.6505 393.918 81.2911C393.918 80.8067 393.906 80.3614 393.883 79.9551C393.867 79.5489 393.84 79.1934 393.801 78.8887C393.77 78.5762 393.727 78.3184 393.672 78.1153C393.617 77.9122 393.551 77.7715 393.473 77.6934C393.356 77.6153 393.219 77.5762 393.063 77.5762C392.93 77.5762 392.762 77.6153 392.559 77.6934C392.363 77.7637 392.129 77.9161 391.856 78.1505C392.02 78.0098 392.223 77.8223 392.465 77.588C392.707 77.3536 392.961 77.127 393.227 76.9083C393.492 76.6817 393.758 76.4903 394.023 76.334C394.289 76.17 394.527 76.088 394.738 76.088C394.965 76.088 395.168 76.1778 395.348 76.3575C395.527 76.5372 395.637 76.838 395.676 77.2598ZM416.008 90.4669C415.766 90.4669 415.543 90.5567 415.34 90.7364C415.137 90.9083 414.938 91.0997 414.742 91.3106C414.547 91.5137 414.344 91.7051 414.133 91.8848C413.922 92.0567 413.691 92.1426 413.441 92.1426H404.699C404.832 92.1192 404.969 92.0606 405.109 91.9669C405.25 91.8731 405.391 91.7676 405.531 91.6505C405.672 91.5255 405.813 91.3926 405.953 91.252C406.102 91.1114 406.25 90.9864 406.398 90.877C406.547 90.7598 406.691 90.6622 406.832 90.584C406.981 90.5059 407.125 90.4669 407.266 90.4669H416.008Z" fill="white"/>
<path d="M34.9753 13.5916V20.7916H27.1753V55.5916H18.8953V20.7916H11.0953V13.5916H34.9753ZM56.4478 55.5916V36.3916H48.1678V55.5916H39.8878V29.9116C39.8878 26.5116 39.6478 24.1516 39.1678 22.8316C38.7278 21.4716 37.7678 19.8316 36.2878 17.9116L43.4878 12.8716C44.7678 13.7116 45.8678 15.2716 46.7878 17.5516C47.7078 19.7916 48.1678 22.5116 48.1678 25.7116V29.1916H56.4478V13.5916H64.7278V55.5916H56.4478ZM71.0986 55.5916V13.5916H79.3786V55.5916H71.0986ZM95.1586 23.8516L95.2186 26.4316V55.5916H86.9386V29.9116C86.9386 26.5516 86.6986 24.1916 86.2186 22.8316C85.7786 21.4716 84.8186 19.8316 83.3386 17.9116L90.5386 12.8716C91.6986 13.6316 92.7786 14.9316 93.7786 16.7716C96.9386 14.1716 99.0786 12.8716 100.199 12.8716C101.319 12.8716 103.079 13.9316 105.479 16.0516C107.919 18.1316 109.439 19.6116 110.039 20.4916C110.639 21.3316 110.939 22.4516 110.939 23.8516V55.5916H102.599V25.0516C102.599 24.6916 102.439 24.2516 102.119 23.7316C101.839 23.1716 101.379 22.5516 100.739 21.8716C100.139 21.1916 99.5586 20.8516 98.9986 20.8516C98.4786 20.8516 97.8186 21.1716 97.0186 21.8116C96.2186 22.4116 95.5986 23.0916 95.1586 23.8516ZM126.39 25.7116V29.1916H128.19C128.87 29.1916 129.57 28.8316 130.29 28.1116C131.05 27.3516 131.61 26.6516 131.97 26.0116C132.37 25.3316 132.77 23.4316 133.17 20.3116C133.57 17.1516 133.77 14.9116 133.77 13.5916H142.05C142.05 15.1516 141.83 17.5916 141.39 20.9116C140.95 24.2316 140.55 26.2716 140.19 27.0316C139.59 28.3516 138.07 30.1316 135.63 32.3716C138.47 34.8116 140.31 36.8716 141.15 38.5516C141.55 39.3916 141.95 41.9316 142.35 46.1716C142.79 50.3716 143.01 53.5116 143.01 55.5916H134.73C134.73 53.7116 134.53 50.7716 134.13 46.7716C133.77 42.7316 133.41 40.3916 133.05 39.7516C131.81 37.5116 130.35 36.3916 128.67 36.3916H126.39V55.5916H118.11V29.3116C118.11 26.0716 117.87 23.8316 117.39 22.5916C116.95 21.3116 115.99 19.7516 114.51 17.9116L121.71 12.8716C122.99 13.7116 124.09 15.2716 125.01 17.5516C125.93 19.7916 126.39 22.5116 126.39 25.7116ZM157.241 30.0316H167.981V37.2916H157.241V48.3316H171.581V55.5916H148.961V18.6316L157.241 12.8716H170.621V20.1916H159.461L157.241 21.7516V30.0316ZM183.89 16.1716C187.09 13.9716 189.27 12.8716 190.43 12.8716C191.59 12.8716 193.37 13.9316 195.77 16.0516C198.21 18.1316 199.73 19.6116 200.33 20.4916C200.93 21.3316 201.23 22.4516 201.23 23.8516C201.23 26.5716 201.01 28.1916 200.57 28.7116C199.73 29.9916 198.43 31.4916 196.67 33.2116C199.11 35.5316 200.63 37.3116 201.23 38.5516C201.55 39.3916 201.89 41.9516 202.25 46.2316C202.61 50.4716 202.79 53.5916 202.79 55.5916H193.79C193.79 53.7916 193.63 50.9716 193.31 47.1316C192.99 43.2916 192.63 40.9716 192.23 40.1716C191.87 39.3716 191.43 38.6716 190.91 38.0716H185.57V55.5916H177.29V29.3116C177.29 26.0716 177.05 23.8316 176.57 22.5916C176.13 21.3116 175.17 19.7516 173.69 17.9116L180.89 12.8716C182.17 13.7116 183.17 14.8116 183.89 16.1716ZM185.57 26.4316V31.0516H187.91C188.47 31.0516 189.19 30.6116 190.07 29.7316C190.95 28.8516 191.51 28.1116 191.75 27.5116C192.03 26.8716 192.17 26.2116 192.17 25.5316C192.17 24.8516 192.03 24.2516 191.75 23.7316C191.51 23.1716 191.15 22.5516 190.67 21.8716C190.19 21.1916 189.79 20.8516 189.47 20.8516C188.39 20.8516 187.03 21.1116 185.39 21.6316C185.51 23.1916 185.57 24.7916 185.57 26.4316Z" fill="white"/>
</svg>
