<svg width="50" height="52" viewBox="0 0 50 52" fill="none" xmlns="http://www.w3.org/2000/svg">
<path d="M15.0509 36.0601C17.3848 38.4217 18.0871 42.3059 15.755 44.6691C13.4212 47.0307 6.38725 49.662 4.05361 47.3004C1.72139 44.9388 4.32208 37.8176 6.6543 35.4561C8.98776 33.0943 12.7187 33.6969 15.0509 36.0601Z" fill="#EFC75E"/>
<path d="M36.6008 30.8088C40.1147 38.2107 31.54 55.4398 27.5751 50.5644C25.9673 48.5881 26.0734 45.4352 21.8758 41.375C21.8696 41.4004 23.404 41.6511 25.2007 39.9983C29.3468 36.7532 36.6008 30.8358 36.6008 30.8088Z" fill="#E2574C"/>
<path d="M21.8351 14.2317C13.9597 10.6059 -4.28096 19.261 0.917391 23.3322C3.02484 24.9833 6.36851 24.8929 10.7004 29.1988C10.6739 29.2052 10.4007 27.6382 12.1459 25.8127C15.5629 21.5972 21.8055 14.2317 21.8351 14.2317Z" fill="#E2574C"/>
<path d="M18.3666 13.4101L18.0262 13.3927C16.2982 15.537 12.0756 20.8233 9.50149 24.1681C8.44616 25.3322 8.16056 26.3901 8.09973 27.0151C8.60403 27.3672 9.12385 27.7732 9.66079 28.2395C9.7919 27.6083 10.1369 26.728 11.0001 25.7748C14.2862 21.502 20.2851 14.032 20.3133 14.0334C19.7246 13.748 19.0626 13.5529 18.3666 13.4101Z" fill="#CF5349"/>
<path d="M36.6494 30.9261C35.6222 31.8047 29.1127 37.2273 25.2444 40.3217C23.9659 41.5238 22.831 41.7491 22.2645 41.7712C22.8202 42.3391 23.3011 42.8893 23.71 43.4207C24.2189 43.4287 25.4442 43.2652 26.8273 41.9663C30.0648 39.3747 35.135 35.1702 37.3096 33.3446C37.1925 32.4694 36.9771 31.6525 36.6494 30.9261Z" fill="#CF5349"/>
<path d="M9.52789 34.0284C9.85256 35.5066 10.8501 37.2686 12.4033 38.8436C13.9487 40.4106 15.6769 41.4193 17.1302 41.7556C17.3769 39.77 16.5683 37.5956 15.0509 36.0603C13.5414 34.5312 11.4496 33.7572 9.52789 34.0284Z" fill="#D7B354"/>
<path d="M49.6855 0.915468C50.8594 2.04316 49.1312 18.7852 37.8685 30.1522C30.8954 37.1909 26.27 39.9157 25.1633 40.8911C22.1022 42.3012 20.0713 43.0591 14.0051 36.9341C7.95295 30.8247 9.11745 29.1309 10.46 26.2045C11.4559 25.0689 14.2143 20.3506 21.189 13.3102C32.447 1.94474 48.4569 -0.191558 49.6855 0.915468Z" fill="#EBEBEB"/>
<path d="M35.6065 15.1944C38.034 17.6655 38.034 21.6717 35.6065 24.1444C33.1776 26.6154 29.2422 26.6154 26.8132 24.1444C24.3857 21.6717 24.3857 17.6655 26.8132 15.1944C29.2422 12.7218 33.1776 12.7218 35.6065 15.1944Z" fill="#324D5B"/>
<path d="M33.429 17.437C34.6529 18.6725 34.6529 20.6756 33.429 21.9111C32.2067 23.1466 30.221 23.1466 28.9957 21.9111C27.7734 20.6756 27.7734 18.6725 28.9957 17.437C30.2225 16.2014 32.2067 16.2014 33.429 17.437Z" fill="#CCD0D2"/>
</svg>
