<svg width="104" height="98" viewBox="0 0 104 98" fill="none" xmlns="http://www.w3.org/2000/svg">
<path fill-rule="evenodd" clip-rule="evenodd" d="M21.5063 14.2763V75.4605C21.5063 77.0832 22.1861 78.6394 23.3961 79.7868C24.606 80.9343 26.2471 81.5789 27.9582 81.5789H55.9164V74.3693C54.2764 73.4714 52.9947 72.0854 52.27 70.4263C51.5453 68.7672 51.4181 66.9276 51.9083 65.193C52.3984 63.4583 53.4784 61.9255 54.9808 60.8323C56.4832 59.7391 58.3239 59.1465 60.2176 59.1465C62.1114 59.1465 63.9521 59.7391 65.4545 60.8323C66.9569 61.9255 68.0369 63.4583 68.527 65.193C69.0172 66.9276 68.89 68.7672 68.1653 70.4263C67.4406 72.0854 66.1589 73.4714 64.5189 74.3693V81.5789H75.272C76.9832 81.5789 78.6242 80.9343 79.8342 79.7868C81.0442 78.6394 81.7239 77.0832 81.7239 75.4605V14.2763C81.7239 12.6536 81.0442 11.0973 79.8342 9.94988C78.6242 8.80245 76.9832 8.15784 75.272 8.15784H27.9582C26.2471 8.15784 24.606 8.80245 23.3961 9.94988C22.1861 11.0973 21.5063 12.6536 21.5063 14.2763ZM60.2176 71.3815C61.3584 71.3815 62.4525 70.9518 63.2591 70.1868C64.0657 69.4219 64.5189 68.3844 64.5189 67.3026C64.5189 66.2208 64.0657 65.1833 63.2591 64.4183C62.4525 63.6534 61.3584 63.2236 60.2176 63.2236C59.0769 63.2236 57.9828 63.6534 57.1762 64.4183C56.3696 65.1833 55.9164 66.2208 55.9164 67.3026C55.9164 68.3844 56.3696 69.4219 57.1762 70.1868C57.9828 70.9518 59.0769 71.3815 60.2176 71.3815ZM38.7114 22.4342C38.7114 21.8932 38.938 21.3745 39.3413 20.992C39.7446 20.6096 40.2916 20.3947 40.862 20.3947H62.3683C62.9387 20.3947 63.4857 20.6096 63.889 20.992C64.2923 21.3745 64.5189 21.8932 64.5189 22.4342C64.5189 22.9751 64.2923 23.4938 63.889 23.8763C63.4857 24.2588 62.9387 24.4736 62.3683 24.4736H40.862C40.2916 24.4736 39.7446 24.2588 39.3413 23.8763C38.938 23.4938 38.7114 22.9751 38.7114 22.4342ZM32.2595 32.6315C31.6891 32.6315 31.1421 32.8464 30.7388 33.2289C30.3354 33.6113 30.1089 34.1301 30.1089 34.671C30.1089 35.2119 30.3354 35.7306 30.7388 36.1131C31.1421 36.4956 31.6891 36.7105 32.2595 36.7105H70.9708C71.5412 36.7105 72.0882 36.4956 72.4915 36.1131C72.8948 35.7306 73.1214 35.2119 73.1214 34.671C73.1214 34.1301 72.8948 33.6113 72.4915 33.2289C72.0882 32.8464 71.5412 32.6315 70.9708 32.6315H32.2595ZM30.1089 42.8289C30.1089 42.288 30.3354 41.7692 30.7388 41.3868C31.1421 41.0043 31.6891 40.7894 32.2595 40.7894H70.9708C71.5412 40.7894 72.0882 41.0043 72.4915 41.3868C72.8948 41.7692 73.1214 42.288 73.1214 42.8289C73.1214 43.3698 72.8948 43.8885 72.4915 44.271C72.0882 44.6535 71.5412 44.8684 70.9708 44.8684H32.2595C31.6891 44.8684 31.1421 44.6535 30.7388 44.271C30.3354 43.8885 30.1089 43.3698 30.1089 42.8289ZM32.2595 48.9473C31.6891 48.9473 31.1421 49.1622 30.7388 49.5447C30.3354 49.9271 30.1089 50.4459 30.1089 50.9868C30.1089 51.5277 30.3354 52.0464 30.7388 52.4289C31.1421 52.8114 31.6891 53.0263 32.2595 53.0263H70.9708C71.5412 53.0263 72.0882 52.8114 72.4915 52.4289C72.8948 52.0464 73.1214 51.5277 73.1214 50.9868C73.1214 50.4459 72.8948 49.9271 72.4915 49.5447C72.0882 49.1622 71.5412 48.9473 70.9708 48.9473H32.2595Z" fill="black"/>
<path d="M55.9165 89.7368V81.5789H64.519V89.7368L60.2178 86.6775L55.9165 89.7368Z" fill="black"/>
</svg>
