<svg width="286" height="361" viewBox="0 0 286 361" fill="none" xmlns="http://www.w3.org/2000/svg">
<path fill-rule="evenodd" clip-rule="evenodd" d="M90.2868 75.006C85.2653 70.4158 81.1684 64.5238 79.8447 57.4982C76.0306 37.2553 101.374 38.532 108.63 48.0578C115.886 57.5836 121.772 83.3694 116.134 85.9709C113.885 87.0084 108.265 85.9095 102.079 82.9293L112.152 109.488L92.6267 112.019L90.2868 75.006Z" fill="#B28B67" fill-opacity="0.58"/>
<path fill-rule="evenodd" clip-rule="evenodd" d="M69.2903 53.072C68.4325 52.4191 67.8012 51.4102 67.2328 50.4481C66.6424 49.4486 66.0587 48.4373 65.5684 47.3809C64.5888 45.2701 63.9608 42.7779 64.9318 40.9137C65.7105 39.4189 67.2342 38.5957 68.7474 38.2631C69.7555 38.0415 70.8536 38.0642 71.9312 38.2963C73.0004 38.5267 74.0233 39.1298 75.0837 39.4487C74.5354 37.1081 74.284 34.6171 74.8518 32.4839C75.3982 30.4314 76.7656 29.1417 78.5583 28.6145C80.3985 28.0733 82.4122 28.325 84.3825 29.1312C84.8758 29.3331 85.3682 29.5478 85.8512 29.8005C86.2557 30.0121 86.6867 30.2742 87.1122 30.3263C87.5865 30.3845 87.7357 30.0702 87.9348 29.6717C88.1683 29.2045 88.4573 28.7821 88.7792 28.3992C90.2025 26.7062 92.3992 25.8005 94.6906 26.4065C95.7464 26.6857 96.8463 27.25 97.7303 28.1097C98.5182 28.876 99.2641 30.1571 100.208 30.6397C100.608 30.8445 100.765 30.4838 101.012 30.2001C101.382 29.7738 101.722 29.3125 102.101 28.8955C102.634 28.3096 103.252 27.8428 103.965 27.5478C105.01 27.1158 106.569 26.9825 107.294 28.5647C107.567 29.1591 107.638 29.8233 107.753 30.4428C107.911 31.2935 108.067 32.1442 108.212 32.9953C108.322 33.6415 108.413 34.2676 108.462 34.9099C108.487 35.2523 108.462 35.9002 108.675 36.2187C108.942 36.6169 109.628 36.2816 109.95 36.2548C110.586 36.2019 111.249 36.2423 111.905 36.4652C112.414 36.6381 112.973 36.9169 113.307 37.4662C113.512 37.8036 113.572 38.1698 113.608 38.5398C113.65 38.9837 113.784 39.2048 113.943 39.6376C114.673 39.0656 117.344 37.6579 118.134 39.2922C118.396 39.8364 118.275 40.5056 118.181 41.0057C118.014 41.8828 117.713 42.7038 117.393 43.4911C116.725 45.1336 115.803 46.5953 114.738 47.8811C116.505 48.4533 117.489 50.6907 116.469 52.2326C116.019 52.9134 115.244 53.1527 114.476 53.2127C114.195 53.2347 113.765 53.1682 113.56 53.2503C113.45 53.2944 113.351 53.4215 113.192 53.455C112.142 53.6756 110.862 53.5462 109.75 53.4184C107.768 53.1907 105.757 52.4391 103.942 51.1323C103.476 50.797 103.116 50.6161 102.619 50.6865C102.184 50.748 101.79 50.9365 101.357 51.0054C100.213 51.188 99.0165 50.6971 97.8417 50.4196C98.1782 52.0345 98.209 53.8572 97.9791 55.3792C97.7916 56.6204 96.8271 56.9226 95.863 57.1547C92.7803 57.8971 89.5112 57.9409 86.343 58.3578C89.6039 58.7292 92.8538 58.6346 96.1216 59.1457C97.5986 59.3767 96.8065 60.5422 96.3973 61.3319C95.7235 62.6325 95.3681 64.1815 95.2527 65.7797C93.208 63.8017 90.1968 62.7147 88.0135 63.6879C85.6011 64.763 84.7487 68.9017 87.1111 71.4902C88.4826 72.9929 90.3809 73.395 92.0046 73.9061C91.201 75.3582 91.41 77.3213 91.1361 79.0334C91.001 79.8778 90.7567 80.8443 90.0762 81.2209C89.8245 81.3603 89.5012 81.4114 89.3451 81.6912C89.1517 82.0377 89.1742 82.394 88.8947 82.7065C87.7795 83.9537 85.5997 84.1521 84.0259 82.9183C82.6026 81.8025 82.392 79.7714 82.9977 78.3738C81.354 77.8833 78.4509 77.355 78.3985 74.7299C75.1477 74.9094 65.9591 70.1669 69.1916 65.4082C66.4712 64.238 63.4087 60.9118 64.1232 57.5359C64.6734 54.9364 67.1039 53.4903 69.2903 53.072Z" fill="#191847"/>
<path fill-rule="evenodd" clip-rule="evenodd" d="M65.6941 226.924L130.28 219.025L170.471 337.262L74.3304 349.019L65.6941 226.924Z" fill="#C5CFD6"/>
<path fill-rule="evenodd" clip-rule="evenodd" d="M64.4442 229.846L83.2328 227.475L124.49 342.472L72.613 349.019L64.4442 229.846Z" fill="black" fill-opacity="0.1"/>
<path fill-rule="evenodd" clip-rule="evenodd" d="M211.994 185.032C217.665 179.491 230.569 183.945 232.197 190.583C237.068 210.446 244.153 306.154 244.777 312.181C245.401 318.208 236.848 320.95 234.489 313.559C230.735 301.798 219.069 260.907 215.921 241.683C214.622 233.748 213.463 226.18 212.493 219.421C208.34 237.702 201.431 264.004 191.766 298.326L181.021 294.646C181.613 265.7 182.884 245.152 184.834 233.002C188.173 212.198 191.7 194.295 193.469 187.919C196.253 177.89 205.917 179.985 211.994 185.032Z" fill="#B28B67" fill-opacity="0.58"/>
<path fill-rule="evenodd" clip-rule="evenodd" d="M171.74 278.417L186.413 189.454C192.138 174.662 226.933 188.465 226.098 196.805C224.203 215.742 203.18 278.475 202.615 284.117L171.74 278.417Z" fill="#265A7D" fill-opacity="0.92"/>
<path fill-rule="evenodd" clip-rule="evenodd" d="M170.948 290.618C169.096 292.873 167.96 294.646 167.542 295.937C167.034 297.507 166.564 299.892 166.132 303.091C168.022 303.738 185.013 309.554 217.103 320.538C219.793 316.772 219.766 314.232 217.021 312.919C214.276 311.605 212.004 310.49 210.204 309.573L189.807 291.286C189.414 290.934 188.816 290.948 188.471 291.318C188.465 291.324 188.459 291.331 188.453 291.337L185.778 294.376C182.752 294.659 180.413 294.518 178.761 293.953C177.42 293.494 175.735 292.337 173.709 290.483L173.709 290.483C172.931 289.771 171.734 289.788 171.035 290.52C171.005 290.552 170.976 290.584 170.948 290.618Z" fill="#0C151C" fill-opacity="0.59"/>
<path fill-rule="evenodd" clip-rule="evenodd" d="M228.731 304.626C228.503 307.853 228.582 310.234 228.968 311.771C229.437 313.641 230.391 316.334 231.83 319.85C233.708 319.607 250.592 317.418 282.48 313.284C282.536 308.09 281.096 305.477 278.16 305.444C275.224 305.411 272.777 305.355 270.82 305.275L244.24 296.211C243.728 296.037 243.256 296.341 243.185 296.89C243.184 296.899 243.183 296.909 243.182 296.918L242.732 301.352C240.461 303.106 238.505 304.09 236.864 304.303C235.531 304.476 233.533 304.093 230.871 303.154L230.871 303.154C229.85 302.793 228.899 303.389 228.746 304.483C228.74 304.53 228.735 304.578 228.731 304.626Z" fill="#0C151C" fill-opacity="0.59"/>
<path fill-rule="evenodd" clip-rule="evenodd" d="M237.208 198.561C243.688 224.354 247.793 285.945 249.212 291.625L225.529 294.713C215.51 240.579 209.923 213.289 208.77 212.841C207.039 212.169 148.456 227.589 130.314 229.939C104.153 233.327 88.7202 216.374 79.3007 182.488L131.124 175.777C141.991 175.666 200.132 180.89 221.639 182.488C230.846 183.173 235.423 191.456 237.208 198.561Z" fill="#265A7D" fill-opacity="0.92"/>
<path fill-rule="evenodd" clip-rule="evenodd" d="M135.485 121.192L161.287 98.6552C164.671 91.2962 168.356 85.4439 172.343 81.0983C173.67 80.2048 176.192 79.4414 174.954 84.6187C173.717 89.796 172.642 95.3395 174.27 96.6742C175.898 98.0089 178.495 95.5133 180.614 97.807C182.026 99.3361 177.35 102.646 166.585 107.738L150.115 133.188L135.485 121.192ZM187.146 130.695L198.474 120.771C198.353 112.567 199.592 108.271 202.191 107.883C203.937 106.583 202.969 117.094 206.553 115.729C210.138 114.364 217.49 105.47 219.482 106.825C222.428 108.828 222.1 116.196 220.5 120.047C217.509 127.244 214.228 129.998 205.461 134.183C200.876 136.371 196.278 140.163 191.666 145.558L187.146 130.695Z" fill="#997659" fill-opacity="0.58"/>
<path fill-rule="evenodd" clip-rule="evenodd" d="M116.555 120.83C127.481 119.332 141.447 115.006 154.271 102.387L164.215 116.335C156.445 129.185 143.776 140.53 130.448 141.788C119.946 142.778 111.094 129.863 116.555 120.83Z" fill="#3E90C8" fill-opacity="0.92"/>
<path fill-rule="evenodd" clip-rule="evenodd" d="M134.708 141.322C146.621 142.973 164.379 136.908 187.984 123.126C198.248 137.264 203.935 147.555 205.047 153.998C185.845 169.991 168.036 178.319 152.254 180.76C155.393 191.187 156.754 201.319 155.192 210.941C151.982 230.721 101.244 219.357 86.5094 224.795C67.8758 190.742 83.1522 173.945 77.4927 151.345C71.2949 126.596 79.5721 86.194 82.1973 85.8541L106.138 82.7543C112.205 101.483 124.084 121.451 134.708 141.322Z" fill="#3E90C8" fill-opacity="0.92"/>
</svg>
