<svg width="37" height="37" viewBox="0 0 37 37" fill="none" xmlns="http://www.w3.org/2000/svg">
<circle cx="18.5" cy="18.5" r="18" stroke="#DDDDDD"/>
<g clip-path="url(#clip0)">
<path d="M27 14.039C26.405 14.3 25.771 14.473 25.11 14.557C25.79 14.151 26.309 13.513 26.553 12.744C25.919 13.122 25.219 13.389 24.473 13.538C23.871 12.897 23.013 12.5 22.077 12.5C20.261 12.5 18.799 13.974 18.799 15.781C18.799 16.041 18.821 16.291 18.875 16.529C16.148 16.396 13.735 15.089 12.114 13.098C11.831 13.589 11.665 14.151 11.665 14.756C11.665 15.892 12.25 16.899 13.122 17.482C12.595 17.472 12.078 17.319 11.64 17.078C11.64 17.088 11.64 17.101 11.64 17.114C11.64 18.708 12.777 20.032 14.268 20.337C14.001 20.41 13.71 20.445 13.408 20.445C13.198 20.445 12.986 20.433 12.787 20.389C13.212 21.688 14.418 22.643 15.852 22.674C14.736 23.547 13.319 24.073 11.785 24.073C11.516 24.073 11.258 24.061 11 24.028C12.453 24.965 14.175 25.5 16.032 25.5C22.068 25.5 25.368 20.5 25.368 16.166C25.368 16.021 25.363 15.881 25.356 15.742C26.007 15.28 26.554 14.703 27 14.039Z" fill="white"/>
</g>
<defs>
<clipPath id="clip0">
<rect width="16" height="16" fill="white" transform="translate(11 11)"/>
</clipPath>
</defs>
</svg>
