<svg width="96" height="148" viewBox="0 0 96 148" fill="none" xmlns="http://www.w3.org/2000/svg">
<g clip-path="url(#clip0_93_103)">
<path d="M0 19.7333V28.9833H91.3846V102.983H33.2308V112.233H108V102.983H99.6923V19.7333H0ZM16.6237 33.6083C12.221 33.6253 8.00281 35.5796 4.88882 39.0451C1.77482 42.5106 0.0175142 47.2062 0 52.1083C0 62.2787 7.49354 70.6083 16.6237 70.6083C21.0242 70.5888 25.2394 68.6331 28.3503 65.1677C31.4611 61.7022 33.2155 57.0079 33.2308 52.1083C33.2308 41.9472 25.7455 33.6083 16.6237 33.6083ZM41.5385 38.2333V47.4833H62.3077V38.2333H41.5385ZM70.6154 38.2333V47.4833H83.0769V38.2333H70.6154ZM16.6237 42.8583C21.2511 42.8583 24.9231 46.9422 24.9231 52.1083C24.9231 57.2883 21.2552 61.3583 16.6237 61.3583C11.9714 61.3583 8.30769 57.2883 8.30769 52.1083C8.30769 46.9422 11.9755 42.8583 16.6237 42.8583ZM41.5385 56.7333V65.9833H83.0769V56.7333H41.5385ZM0 75.2333V112.233H8.30769V84.4833H20.7692V112.233H29.0769V87.5265L37.6505 92.577C40.0805 94.0108 43.0006 94.0061 45.4265 92.577V92.5863L60.0895 83.9514L56.214 75.7652L41.5468 84.4L28.6865 76.8428C26.8916 75.787 24.8927 75.2346 22.8628 75.2333H0Z" fill="black"/>
</g>
<defs>
<clipPath id="clip0_93_103">
<rect width="96" height="148" rx="30" fill="white"/>
</clipPath>
</defs>
</svg>
